<svg width="1200" height="630" viewBox="0 0 1200 630" xmlns="http://www.w3.org/2000/svg"><rect x="0" y="0" width="1200" height="630" fill="#fefbfb"/><defs><clipPath id="satori_bc-id-0"><path x="105" y="39" width="1056" height="504" d="M109,39 h1048 a4,4 0 0 1 4,4 v496 a4,4 0 0 1 -4,4 h-1048 a4,4 0 0 1 -4,-4 v-496 a4,4 0 0 1 4,-4"/></clipPath></defs><g opacity="0.9"><path x="105" y="39" width="1056" height="504" fill="#ecebeb" d="M109,39 h1048 a4,4 0 0 1 4,4 v496 a4,4 0 0 1 -4,4 h-1048 a4,4 0 0 1 -4,-4 v-496 a4,4 0 0 1 4,-4"/><path width="1056" height="504" clip-path="url(#satori_bc-id-0)" fill="none" stroke="#000" stroke-width="8" d="M106.172,40.172 A4,4 0 0 1 109,39 h1048 a4,4 0 0 1 4,4 v496 a4,4 0 0 1 -4,4 h-1048 a4,4 0 0 1 -4,-4 v-496 A4,4 0 0 1 106.172,40.172"/></g><defs><clipPath id="satori_bc-id-1"><path x="72" y="63" width="1056" height="504" d="M76,63 h1048 a4,4 0 0 1 4,4 v496 a4,4 0 0 1 -4,4 h-1048 a4,4 0 0 1 -4,-4 v-496 a4,4 0 0 1 4,-4"/></clipPath></defs><path x="72" y="63" width="1056" height="504" fill="#fefbfb" d="M76,63 h1048 a4,4 0 0 1 4,4 v496 a4,4 0 0 1 -4,4 h-1048 a4,4 0 0 1 -4,-4 v-496 a4,4 0 0 1 4,-4"/><path width="1056" height="504" clip-path="url(#satori_bc-id-1)" fill="none" stroke="#000" stroke-width="8" d="M73.172,64.172 A4,4 0 0 1 76,63 h1048 a4,4 0 0 1 4,4 v496 a4,4 0 0 1 -4,4 h-1048 a4,4 0 0 1 -4,-4 v-496 A4,4 0 0 1 73.172,64.172"/><clipPath id="satori_cp-id-1-0-0"><rect x="128" y="103" width="944" height="187"/></clipPath><mask id="satori_om-id-1-0-0"><rect x="128" y="103" width="944" height="187" fill="#fff"/></mask><path fill="black" d="M170.8 183.0L159.3 183.0L156.2 170.9L142.4 170.9L139.3 183.0L128.4 183.0L142.0 132.7L157.2 132.7L170.8 183.0ZM154.5 162.1L149.6 143.1L149.0 143.1L144.1 162.1L154.5 162.1ZM199.5 183.0L199.5 176.2L199.0 176.2Q197.6 179.6 195.0 181.7Q192.4 183.8 188.0 183.8L188.0 183.8Q184.9 183.8 182.3 182.7Q179.8 181.5 177.9 179.1Q176.1 176.8 175.1 173.1Q174.0 169.4 174.0 164.4L174.0 164.4Q174.0 159.3 175.1 155.7Q176.1 152.0 177.9 149.6Q179.8 147.2 182.3 146.1Q184.9 144.9 188.0 144.9L188.0 144.9Q190.2 144.9 191.9 145.5Q193.7 146.1 195.0 147.1Q196.3 148.1 197.3 149.5Q198.3 150.9 199.0 152.6L199.0 152.6L199.5 152.6L199.5 129.7L210.2 129.7L210.2 183.0L199.5 183.0ZM192.6 175.5L192.6 175.5Q195.4 175.5 197.4 174.2Q199.5 172.8 199.5 169.8L199.5 169.8L199.5 158.9Q199.5 156.0 197.4 154.6Q195.4 153.2 192.6 153.2L192.6 153.2Q189.0 153.2 187.0 155.4Q185.1 157.6 185.1 161.5L185.1 161.5L185.1 167.3Q185.1 171.1 187.0 173.3Q189.0 175.5 192.6 175.5ZM242.7 183.0L242.7 176.2L242.2 176.2Q240.8 179.6 238.2 181.7Q235.6 183.8 231.2 183.8L231.2 183.8Q228.1 183.8 225.5 182.7Q223.0 181.5 221.1 179.1Q219.3 176.8 218.3 173.1Q217.2 169.4 217.2 164.4L217.2 164.4Q217.2 159.3 218.3 155.7Q219.3 152.0 221.1 149.6Q223.0 147.2 225.5 146.1Q228.1 144.9 231.2 144.9L231.2 144.9Q233.4 144.9 235.1 145.5Q236.9 146.1 238.2 147.1Q239.5 148.1 240.5 149.5Q241.5 150.9 242.2 152.6L242.2 152.6L242.7 152.6L242.7 129.7L253.4 129.7L253.4 183.0L242.7 183.0ZM235.8 175.5L235.8 175.5Q238.6 175.5 240.6 174.2Q242.7 172.8 242.7 169.8L242.7 169.8L242.7 158.9Q242.7 156.0 240.6 154.6Q238.6 153.2 235.8 153.2L235.8 153.2Q232.2 153.2 230.2 155.4Q228.3 157.6 228.3 161.5L228.3 161.5L228.3 167.3Q228.3 171.1 230.2 173.3Q232.2 175.5 235.8 175.5ZM281.5 141.0L281.5 141.0Q277.9 141.0 276.5 139.6Q275.1 138.1 275.1 136.0L275.1 136.0L275.1 133.9Q275.1 131.8 276.5 130.3Q277.9 128.9 281.5 128.9L281.5 128.9Q285.1 128.9 286.5 130.3Q287.9 131.8 287.9 133.9L287.9 133.9L287.9 136.0Q287.9 138.1 286.5 139.6Q285.1 141.0 281.5 141.0ZM264.4 183.0L264.4 174.7L276.2 174.7L276.2 154.1L264.4 154.1L264.4 145.8L286.8 145.8L286.8 174.7L297.8 174.7L297.8 183.0L264.4 183.0ZM316.1 183.0L305.5 183.0L305.5 145.8L316.1 145.8L316.1 152.6L316.6 152.6Q317.2 151.0 318.2 149.6Q319.1 148.2 320.4 147.2Q321.8 146.2 323.5 145.5Q325.3 144.9 327.5 144.9L327.5 144.9Q330.2 144.9 332.4 145.8Q334.6 146.7 336.2 148.5Q337.8 150.3 338.7 152.9Q339.6 155.5 339.6 158.9L339.6 158.9L339.6 183.0L329.0 183.0L329.0 160.3Q329.0 153.1 322.7 153.1L322.7 153.1Q321.5 153.1 320.3 153.5Q319.1 153.8 318.2 154.5Q317.2 155.2 316.7 156.2Q316.1 157.2 316.1 158.5L316.1 158.5L316.1 183.0ZM386.0 186.7L386.0 186.7Q386.0 192.6 381.0 195.4Q376.0 198.2 365.4 198.2L365.4 198.2Q360.1 198.2 356.6 197.6Q353.1 197.0 351.1 195.8Q349.0 194.7 348.2 193.1Q347.4 191.5 347.4 189.6L347.4 189.6Q347.4 186.5 349.3 184.9Q351.1 183.2 354.5 182.4L354.5 182.4L354.5 181.9Q352.1 181.2 350.7 179.9Q349.3 178.6 349.3 176.1L349.3 176.1Q349.3 173.4 351.2 172.1Q353.0 170.8 356.0 170.1L356.0 170.1L356.0 169.6Q352.7 168.0 350.9 165.2Q349.0 162.3 349.0 158.2L349.0 158.2Q349.0 154.9 350.2 152.5Q351.3 150.0 353.5 148.3Q355.6 146.7 358.5 145.8Q361.5 144.9 365.2 144.9L365.2 144.9Q368.7 144.9 371.7 145.7L371.7 145.7L371.7 143.7Q371.7 141.6 373.2 140.1Q374.7 138.7 377.4 138.7L377.4 138.7L384.0 138.7L384.0 146.4L375.0 146.4L375.0 147.1Q378.1 148.7 379.7 151.5Q381.4 154.2 381.4 158.2L381.4 158.2Q381.4 161.4 380.3 163.9Q379.1 166.3 377.0 168.0Q374.8 169.7 371.8 170.6Q368.8 171.4 365.2 171.4L365.2 171.4Q363.5 171.4 362.0 171.3Q360.5 171.1 359.1 170.7L359.1 170.7Q358.3 171.1 357.8 171.8Q357.2 172.4 357.2 173.4L357.2 173.4Q357.2 174.3 357.7 174.8Q358.1 175.3 358.9 175.6Q359.6 175.8 360.6 175.9Q361.6 176.0 362.7 176.0L362.7 176.0L371.2 176.0Q375.2 176.0 378.0 176.8Q380.8 177.6 382.6 179.0Q384.4 180.4 385.2 182.4Q386.0 184.3 386.0 186.7ZM375.9 187.5L375.9 187.5Q375.9 186.0 374.7 185.2Q373.6 184.4 370.4 184.4L370.4 184.4L357.6 184.4Q356.2 185.6 356.2 187.4L356.2 187.4Q356.2 189.1 357.6 190.3Q359.1 191.4 362.6 191.4L362.6 191.4L368.9 191.4Q372.6 191.4 374.2 190.4Q375.9 189.4 375.9 187.5ZM365.2 164.7L365.2 164.7Q368.4 164.7 369.9 163.1Q371.4 161.5 371.4 159.0L371.4 159.0L371.4 157.3Q371.4 154.9 369.9 153.3Q368.4 151.7 365.2 151.7L365.2 151.7Q362.0 151.7 360.6 153.3Q359.1 154.9 359.1 157.3L359.1 157.3L359.1 159.0Q359.1 161.5 360.6 163.1Q362.0 164.7 365.2 164.7Z M445.7 183.0L435.1 183.0L435.1 145.8L445.7 145.8L445.7 152.6L446.2 152.6Q446.8 151.0 447.8 149.6Q448.7 148.2 450.0 147.2Q451.4 146.2 453.1 145.5Q454.9 144.9 457.1 144.9L457.1 144.9Q459.8 144.9 462.0 145.8Q464.2 146.7 465.8 148.5Q467.4 150.3 468.3 152.9Q469.2 155.5 469.2 158.9L469.2 158.9L469.2 183.0L458.6 183.0L458.6 160.3Q458.6 153.1 452.3 153.1L452.3 153.1Q451.1 153.1 449.9 153.5Q448.7 153.8 447.8 154.5Q446.8 155.2 446.3 156.2Q445.7 157.2 445.7 158.5L445.7 158.5L445.7 183.0ZM496.2 183.8L496.2 183.8Q486.8 183.8 482.0 178.6Q477.2 173.4 477.2 164.5L477.2 164.5Q477.2 160.0 478.5 156.3Q479.7 152.7 482.1 150.2Q484.4 147.6 487.7 146.3Q491.1 144.9 495.3 144.9L495.3 144.9Q499.4 144.9 502.8 146.3Q506.1 147.6 508.4 150.0Q510.7 152.5 511.9 156.0Q513.2 159.5 513.2 163.8L513.2 163.8L513.2 167.0L487.8 167.0L487.8 167.6Q487.8 171.2 490.0 173.4Q492.2 175.6 496.6 175.6L496.6 175.6Q499.9 175.6 502.3 174.3Q504.6 173.1 506.4 171.0L506.4 171.0L512.1 177.3Q510.0 179.9 506.1 181.9Q502.2 183.8 496.2 183.8ZM495.3 152.6L495.3 152.6Q491.9 152.6 489.8 154.7Q487.8 156.8 487.8 160.4L487.8 160.4L487.8 161.0L502.8 161.0L502.8 160.4Q502.8 156.7 500.8 154.7Q498.8 152.6 495.3 152.6ZM521.7 183.0L517.3 145.8L526.2 145.8L528.8 175.9L529.5 175.9L533.9 145.8L543.3 145.8L547.6 175.9L548.3 175.9L551.1 145.8L559.5 145.8L555.1 183.0L542.4 183.0L538.8 157.3L538.0 157.3L534.4 183.0L521.7 183.0Z M607.4 197.4L607.4 145.8L618.1 145.8L618.1 152.6L618.6 152.6Q620.0 149.3 622.6 147.1Q625.2 144.9 629.6 144.9L629.6 144.9Q632.7 144.9 635.3 146.1Q637.8 147.2 639.7 149.6Q641.5 152.0 642.5 155.7Q643.6 159.3 643.6 164.4L643.6 164.4Q643.6 169.4 642.5 173.1Q641.5 176.8 639.7 179.1Q637.8 181.5 635.3 182.7Q632.7 183.8 629.6 183.8L629.6 183.8Q625.2 183.8 622.6 181.7Q620.0 179.6 618.6 176.2L618.6 176.2L618.1 176.2L618.1 197.4L607.4 197.4ZM625.0 175.5L625.0 175.5Q628.6 175.5 630.6 173.3Q632.5 171.1 632.5 167.3L632.5 167.3L632.5 161.5Q632.5 157.6 630.6 155.4Q628.6 153.2 625.0 153.2L625.0 153.2Q622.2 153.2 620.2 154.6Q618.1 156.0 618.1 158.9L618.1 158.9L618.1 169.8Q618.1 172.8 620.2 174.2Q622.2 175.5 625.0 175.5ZM668.0 183.8L668.0 183.8Q663.7 183.8 660.2 182.5Q656.8 181.2 654.4 178.6Q651.9 176.1 650.6 172.5Q649.4 168.9 649.4 164.4L649.4 164.4Q649.4 159.8 650.6 156.2Q651.9 152.6 654.4 150.1Q656.8 147.6 660.2 146.3Q663.7 144.9 668.0 144.9L668.0 144.9Q672.3 144.9 675.8 146.3Q679.2 147.6 681.6 150.1Q684.1 152.6 685.4 156.2Q686.6 159.8 686.6 164.4L686.6 164.4Q686.6 168.9 685.4 172.5Q684.1 176.1 681.6 178.6Q679.2 181.2 675.8 182.5Q672.3 183.8 668.0 183.8ZM668.0 175.9L668.0 175.9Q671.6 175.9 673.6 173.7Q675.6 171.4 675.6 167.3L675.6 167.3L675.6 161.4Q675.6 157.3 673.6 155.1Q671.6 152.9 668.0 152.9L668.0 152.9Q664.4 152.9 662.4 155.1Q660.4 157.3 660.4 161.4L660.4 161.4L660.4 167.3Q660.4 171.4 662.4 173.7Q664.4 175.9 668.0 175.9ZM710.8 183.8L710.8 183.8Q704.6 183.8 700.0 181.9Q695.4 180.1 693.1 176.8L693.1 176.8L699.1 171.3Q701.3 173.7 704.2 175.0Q707.1 176.3 710.8 176.3L710.8 176.3Q714.0 176.3 715.8 175.4Q717.6 174.4 717.6 172.4L717.6 172.4Q717.6 170.8 716.4 170.2Q715.2 169.6 713.0 169.2L713.0 169.2L707.0 168.3Q704.5 167.9 702.3 167.1Q700.2 166.4 698.6 165.1Q697.0 163.8 696.1 161.9Q695.1 160.1 695.1 157.4L695.1 157.4Q695.1 151.6 699.6 148.2Q704.1 144.9 712.1 144.9L712.1 144.9Q717.6 144.9 721.5 146.4Q725.3 147.9 727.6 150.6L727.6 150.6L722.3 156.7Q720.6 154.9 718.0 153.6Q715.4 152.4 711.8 152.4L711.8 152.4Q705.6 152.4 705.6 156.2L705.6 156.2Q705.6 157.8 706.8 158.4Q708.0 159.0 710.2 159.4L710.2 159.4L716.1 160.3Q718.6 160.7 720.8 161.5Q722.9 162.2 724.6 163.5Q726.2 164.8 727.1 166.7Q728.0 168.6 728.0 171.2L728.0 171.2Q728.0 177.0 723.5 180.4Q719.0 183.8 710.8 183.8ZM771.0 183.0L757.3 183.0Q751.5 183.0 748.7 179.9Q745.9 176.9 745.9 172.2L745.9 172.2L745.9 154.1L735.8 154.1L735.8 145.8L742.4 145.8Q744.8 145.8 745.8 144.9Q746.8 143.9 746.8 141.4L746.8 141.4L746.8 132.7L756.6 132.7L756.6 145.8L771.0 145.8L771.0 154.1L756.6 154.1L756.6 174.7L771.0 174.7L771.0 183.0ZM797.2 183.8L797.2 183.8Q791.0 183.8 786.4 181.9Q781.8 180.1 779.5 176.8L779.5 176.8L785.5 171.3Q787.7 173.7 790.6 175.0Q793.5 176.3 797.2 176.3L797.2 176.3Q800.4 176.3 802.2 175.4Q804.0 174.4 804.0 172.4L804.0 172.4Q804.0 170.8 802.8 170.2Q801.6 169.6 799.4 169.2L799.4 169.2L793.4 168.3Q790.9 167.9 788.7 167.1Q786.6 166.4 785.0 165.1Q783.4 163.8 782.5 161.9Q781.5 160.1 781.5 157.4L781.5 157.4Q781.5 151.6 786.0 148.2Q790.5 144.9 798.5 144.9L798.5 144.9Q804.0 144.9 807.9 146.4Q811.7 147.9 814.0 150.6L814.0 150.6L808.7 156.7Q807.0 154.9 804.4 153.6Q801.8 152.4 798.2 152.4L798.2 152.4Q792.0 152.4 792.0 156.2L792.0 156.2Q792.0 157.8 793.2 158.4Q794.4 159.0 796.6 159.4L796.6 159.4L802.5 160.3Q805.0 160.7 807.2 161.5Q809.3 162.2 811.0 163.5Q812.6 164.8 813.5 166.7Q814.4 168.6 814.4 171.2L814.4 171.2Q814.4 177.0 809.9 180.4Q805.4 183.8 797.2 183.8Z M886.3 141.0L886.3 141.0Q882.7 141.0 881.3 139.6Q879.9 138.1 879.9 136.0L879.9 136.0L879.9 133.9Q879.9 131.8 881.3 130.3Q882.7 128.9 886.3 128.9L886.3 128.9Q889.9 128.9 891.3 130.3Q892.7 131.8 892.7 133.9L892.7 133.9L892.7 136.0Q892.7 138.1 891.3 139.6Q889.9 141.0 886.3 141.0ZM869.2 183.0L869.2 174.7L881.0 174.7L881.0 154.1L869.2 154.1L869.2 145.8L891.6 145.8L891.6 174.7L902.6 174.7L902.6 183.0L869.2 183.0ZM920.9 183.0L910.3 183.0L910.3 145.8L920.9 145.8L920.9 152.6L921.4 152.6Q922.0 151.0 923.0 149.6Q923.9 148.2 925.2 147.2Q926.6 146.2 928.3 145.5Q930.1 144.9 932.3 144.9L932.3 144.9Q935.0 144.9 937.2 145.8Q939.4 146.7 941.0 148.5Q942.6 150.3 943.5 152.9Q944.4 155.5 944.4 158.9L944.4 158.9L944.4 183.0L933.8 183.0L933.8 160.3Q933.8 153.1 927.5 153.1L927.5 153.1Q926.3 153.1 925.1 153.5Q923.9 153.8 923.0 154.5Q922.0 155.2 921.5 156.2Q920.9 157.2 920.9 158.5L920.9 158.5L920.9 183.0Z M170.8 276.6L159.3 276.6L156.2 264.5L142.4 264.5L139.3 276.6L128.4 276.6L142.0 226.3L157.2 226.3L170.8 276.6ZM154.5 255.7L149.6 236.7L149.0 236.7L144.1 255.7L154.5 255.7ZM192.4 277.4L192.4 277.4Q186.2 277.4 181.6 275.5Q177.0 273.7 174.7 270.4L174.7 270.4L180.7 264.9Q182.9 267.3 185.8 268.6Q188.7 269.9 192.4 269.9L192.4 269.9Q195.6 269.9 197.4 269.0Q199.2 268.0 199.2 266.0L199.2 266.0Q199.2 264.4 198.0 263.8Q196.8 263.2 194.6 262.8L194.6 262.8L188.6 261.9Q186.1 261.5 183.9 260.7Q181.8 260.0 180.2 258.7Q178.6 257.4 177.7 255.5Q176.7 253.7 176.7 251.0L176.7 251.0Q176.7 245.2 181.2 241.8Q185.7 238.5 193.7 238.5L193.7 238.5Q199.2 238.5 203.1 240.0Q206.9 241.5 209.2 244.2L209.2 244.2L203.9 250.3Q202.2 248.5 199.6 247.2Q197.0 246.0 193.4 246.0L193.4 246.0Q187.2 246.0 187.2 249.8L187.2 249.8Q187.2 251.4 188.4 252.0Q189.6 252.6 191.8 253.0L191.8 253.0L197.7 253.9Q200.2 254.3 202.4 255.1Q204.5 255.8 206.2 257.1Q207.8 258.4 208.7 260.3Q209.6 262.2 209.6 264.8L209.6 264.8Q209.6 270.6 205.1 274.0Q200.6 277.4 192.4 277.4ZM252.6 276.6L238.9 276.6Q233.1 276.6 230.3 273.5Q227.5 270.5 227.5 265.8L227.5 265.8L227.5 247.7L217.4 247.7L217.4 239.4L224.0 239.4Q226.4 239.4 227.4 238.5Q228.4 237.5 228.4 235.0L228.4 235.0L228.4 226.3L238.2 226.3L238.2 239.4L252.6 239.4L252.6 247.7L238.2 247.7L238.2 268.3L252.6 268.3L252.6 276.6ZM262.9 276.6L262.9 268.3L271.5 268.3L271.5 247.7L262.9 247.7L262.9 239.4L282.2 239.4L282.2 249.9L282.7 249.9Q283.2 247.9 284.1 246.0Q285.0 244.1 286.4 242.6Q287.8 241.1 289.8 240.3Q291.8 239.4 294.5 239.4L294.5 239.4L298.1 239.4L298.1 249.2L290.1 249.2Q286.2 249.2 284.2 251.5Q282.2 253.9 282.2 257.3L282.2 257.3L282.2 268.3L294.4 268.3L294.4 276.6L262.9 276.6ZM322.4 277.4L322.4 277.4Q318.1 277.4 314.6 276.1Q311.2 274.8 308.8 272.2Q306.3 269.7 305.0 266.1Q303.8 262.5 303.8 258.0L303.8 258.0Q303.8 253.4 305.0 249.8Q306.3 246.2 308.8 243.7Q311.2 241.2 314.6 239.9Q318.1 238.5 322.4 238.5L322.4 238.5Q326.7 238.5 330.2 239.9Q333.6 241.2 336.0 243.7Q338.5 246.2 339.8 249.8Q341.0 253.4 341.0 258.0L341.0 258.0Q341.0 262.5 339.8 266.1Q338.5 269.7 336.0 272.2Q333.6 274.8 330.2 276.1Q326.7 277.4 322.4 277.4ZM322.4 269.5L322.4 269.5Q326.0 269.5 328.0 267.3Q330.0 265.0 330.0 260.9L330.0 260.9L330.0 255.0Q330.0 250.9 328.0 248.7Q326.0 246.5 322.4 246.5L322.4 246.5Q318.8 246.5 316.8 248.7Q314.8 250.9 314.8 255.0L314.8 255.0L314.8 260.9Q314.8 265.0 316.8 267.3Q318.8 269.5 322.4 269.5ZM360.3 276.6L349.5 276.6L349.5 226.3L368.9 226.3Q372.6 226.3 375.5 227.4Q378.3 228.5 380.3 230.6Q382.3 232.7 383.3 235.7Q384.3 238.6 384.3 242.3L384.3 242.3Q384.3 246.0 383.3 248.9Q382.3 251.9 380.3 253.9Q378.3 256.0 375.5 257.1Q372.6 258.3 368.9 258.3L368.9 258.3L360.3 258.3L360.3 276.6ZM360.3 235.0L360.3 249.6L366.2 249.6Q370.0 249.6 371.5 248.1Q372.9 246.7 372.9 243.4L372.9 243.4L372.9 241.2Q372.9 237.9 371.5 236.4Q370.0 235.0 366.2 235.0L366.2 235.0L360.3 235.0ZM428.4 276.6L422.3 276.6Q419.0 276.6 416.9 274.9Q414.9 273.2 414.6 270.0L414.6 270.0L414.2 270.0Q413.2 273.7 410.2 275.5Q407.2 277.4 402.9 277.4L402.9 277.4Q397.5 277.4 394.2 274.5Q390.9 271.6 390.9 266.3L390.9 266.3Q390.9 260.5 395.2 257.7Q399.4 254.9 407.6 254.9L407.6 254.9L413.6 254.9L413.6 253.0Q413.6 249.7 412.1 248.0Q410.5 246.3 406.9 246.3L406.9 246.3Q403.5 246.3 401.4 247.6Q399.3 248.9 397.8 251.0L397.8 251.0L392.0 245.8Q393.8 242.6 397.8 240.6Q401.8 238.5 408.1 238.5L408.1 238.5Q415.7 238.5 420.0 242.0Q424.3 245.5 424.3 252.6L424.3 252.6L424.3 268.8L428.4 268.8L428.4 276.6ZM406.9 270.4L406.9 270.4Q409.7 270.4 411.7 269.1Q413.6 267.7 413.6 265.1L413.6 265.1L413.6 260.6L407.9 260.6Q401.4 260.6 401.4 265.0L401.4 265.0L401.4 266.5Q401.4 268.4 402.9 269.4Q404.4 270.4 406.9 270.4ZM434.6 291.0L434.6 239.4L445.3 239.4L445.3 246.2L445.8 246.2Q447.2 242.9 449.8 240.7Q452.4 238.5 456.8 238.5L456.8 238.5Q459.9 238.5 462.5 239.7Q465.0 240.8 466.9 243.2Q468.7 245.6 469.7 249.3Q470.8 252.9 470.8 258.0L470.8 258.0Q470.8 263.0 469.7 266.7Q468.7 270.4 466.9 272.7Q465.0 275.1 462.5 276.3Q459.9 277.4 456.8 277.4L456.8 277.4Q452.4 277.4 449.8 275.3Q447.2 273.2 445.8 269.8L445.8 269.8L445.3 269.8L445.3 291.0L434.6 291.0ZM452.2 269.1L452.2 269.1Q455.8 269.1 457.8 266.9Q459.7 264.7 459.7 260.9L459.7 260.9L459.7 255.1Q459.7 251.2 457.8 249.0Q455.8 246.8 452.2 246.8L452.2 246.8Q449.4 246.8 447.4 248.2Q445.3 249.6 445.3 252.5L445.3 252.5L445.3 263.4Q445.3 266.4 447.4 267.8Q449.4 269.1 452.2 269.1ZM496.2 277.4L496.2 277.4Q486.8 277.4 482.0 272.2Q477.2 267.0 477.2 258.1L477.2 258.1Q477.2 253.6 478.5 249.9Q479.7 246.3 482.1 243.8Q484.4 241.2 487.7 239.9Q491.1 238.5 495.3 238.5L495.3 238.5Q499.4 238.5 502.8 239.9Q506.1 241.2 508.4 243.6Q510.7 246.1 511.9 249.6Q513.2 253.1 513.2 257.4L513.2 257.4L513.2 260.6L487.8 260.6L487.8 261.2Q487.8 264.8 490.0 267.0Q492.2 269.2 496.6 269.2L496.6 269.2Q499.9 269.2 502.3 267.9Q504.6 266.7 506.4 264.6L506.4 264.6L512.1 270.9Q510.0 273.5 506.1 275.5Q502.2 277.4 496.2 277.4ZM495.3 246.2L495.3 246.2Q491.9 246.2 489.8 248.3Q487.8 250.4 487.8 254.0L487.8 254.0L487.8 254.6L502.8 254.6L502.8 254.0Q502.8 250.3 500.8 248.3Q498.8 246.2 495.3 246.2ZM522.1 276.6L522.1 268.3L530.7 268.3L530.7 247.7L522.1 247.7L522.1 239.4L541.4 239.4L541.4 249.9L541.9 249.9Q542.4 247.9 543.3 246.0Q544.2 244.1 545.6 242.6Q547.0 241.1 549.0 240.3Q551 239.4 553.7 239.4L553.7 239.4L557.3 239.4L557.3 249.2L549.3 249.2Q545.4 249.2 543.4 251.5Q541.4 253.9 541.4 257.3L541.4 257.3L541.4 268.3L553.6 268.3L553.6 276.6L522.1 276.6Z M641.4 276.6L627.7 276.6Q621.9 276.6 619.1 273.5Q616.3 270.5 616.3 265.8L616.3 265.8L616.3 247.7L606.2 247.7L606.2 239.4L612.8 239.4Q615.2 239.4 616.2 238.5Q617.2 237.5 617.2 235.0L617.2 235.0L617.2 226.3L627.0 226.3L627.0 239.4L641.4 239.4L641.4 247.7L627.0 247.7L627.0 268.3L641.4 268.3L641.4 276.6ZM651.1 276.6L651.1 223.3L661.7 223.3L661.7 246.2L662.2 246.2Q662.8 244.6 663.8 243.2Q664.7 241.8 666.0 240.8Q667.4 239.8 669.1 239.1Q670.9 238.5 673.1 238.5L673.1 238.5Q675.8 238.5 678.0 239.4Q680.2 240.3 681.8 242.1Q683.4 243.9 684.3 246.5Q685.2 249.1 685.2 252.5L685.2 252.5L685.2 276.6L674.6 276.6L674.6 253.9Q674.6 246.7 668.3 246.7L668.3 246.7Q667.1 246.7 665.9 247.1Q664.7 247.4 663.8 248.1Q662.8 248.8 662.3 249.8Q661.7 250.8 661.7 252.1L661.7 252.1L661.7 276.6L651.1 276.6ZM712.2 277.4L712.2 277.4Q702.8 277.4 698.0 272.2Q693.2 267.0 693.2 258.1L693.2 258.1Q693.2 253.6 694.5 249.9Q695.7 246.3 698.1 243.8Q700.4 241.2 703.7 239.9Q707.1 238.5 711.3 238.5L711.3 238.5Q715.4 238.5 718.8 239.9Q722.1 241.2 724.4 243.6Q726.7 246.1 727.9 249.6Q729.2 253.1 729.2 257.4L729.2 257.4L729.2 260.6L703.8 260.6L703.8 261.2Q703.8 264.8 706.0 267.0Q708.2 269.2 712.6 269.2L712.6 269.2Q715.9 269.2 718.3 267.9Q720.6 266.7 722.4 264.6L722.4 264.6L728.1 270.9Q726.0 273.5 722.1 275.5Q718.2 277.4 712.2 277.4ZM711.3 246.2L711.3 246.2Q707.9 246.2 705.8 248.3Q703.8 250.4 703.8 254.0L703.8 254.0L703.8 254.6L718.8 254.6L718.8 254.0Q718.8 250.3 716.8 248.3Q714.8 246.2 711.3 246.2ZM743.5 276.6L735.0 276.6L735.0 239.4L743.5 239.4L743.5 244.9L744.0 244.9Q744.9 242.3 746.5 240.4Q748.1 238.5 751.1 238.5L751.1 238.5Q756.5 238.5 757.7 244.9L757.7 244.9L758.1 244.9Q758.6 243.6 759.2 242.4Q759.9 241.3 760.8 240.4Q761.7 239.5 763.0 239.0Q764.3 238.5 766.1 238.5L766.1 238.5Q773.8 238.5 773.8 250.0L773.8 250.0L773.8 276.6L765.3 276.6L765.3 251.1Q765.3 248.5 764.4 247.4Q763.5 246.4 762.0 246.4L762.0 246.4Q760.7 246.4 759.7 247.3Q758.7 248.2 758.7 250.1L758.7 250.1L758.7 276.6L750.1 276.6L750.1 251.1Q750.1 248.5 749.3 247.4Q748.4 246.4 747.0 246.4L747.0 246.4Q745.5 246.4 744.5 247.3Q743.5 248.2 743.5 250.1L743.5 250.1L743.5 276.6ZM798.6 277.4L798.6 277.4Q789.2 277.4 784.4 272.2Q779.6 267.0 779.6 258.1L779.6 258.1Q779.6 253.6 780.9 249.9Q782.1 246.3 784.5 243.8Q786.8 241.2 790.1 239.9Q793.5 238.5 797.7 238.5L797.7 238.5Q801.8 238.5 805.2 239.9Q808.5 241.2 810.8 243.6Q813.1 246.1 814.3 249.6Q815.6 253.1 815.6 257.4L815.6 257.4L815.6 260.6L790.2 260.6L790.2 261.2Q790.2 264.8 792.4 267.0Q794.6 269.2 799.0 269.2L799.0 269.2Q802.3 269.2 804.7 267.9Q807.0 266.7 808.8 264.6L808.8 264.6L814.5 270.9Q812.4 273.5 808.5 275.5Q804.6 277.4 798.6 277.4ZM797.7 246.2L797.7 246.2Q794.3 246.2 792.2 248.3Q790.2 250.4 790.2 254.0L790.2 254.0L790.2 254.6L805.2 254.6L805.2 254.0Q805.2 250.3 803.2 248.3Q801.2 246.2 797.7 246.2Z " clip-path="url(#satori_cp-id-1-0-0)" mask="url(#satori_om-id-1-0-0)"/><path fill="black" d="M130.7 520.3L130.7 499.6L132.9 499.6L132.9 508.2L133.0 508.2Q134.4 505.5 137.5 505.5L137.5 505.5Q140.1 505.5 141.6 507.5Q143.1 509.5 143.1 513.0L143.1 513.0Q143.1 516.6 141.6 518.6Q140.1 520.6 137.5 520.6L137.5 520.6Q134.4 520.6 133.0 517.9L133.0 517.9L132.9 517.9L132.9 520.3L130.7 520.3ZM136.6 518.6L136.6 518.6Q138.6 518.6 139.6 517.4Q140.7 516.2 140.7 514.3L140.7 514.3L140.7 511.8Q140.7 509.9 139.6 508.7Q138.6 507.5 136.6 507.5L136.6 507.5Q135.8 507.5 135.2 507.7Q134.5 507.9 134.0 508.2Q133.5 508.6 133.2 509.2Q132.9 509.7 132.9 510.4L132.9 510.4L132.9 515.7Q132.9 516.4 133.2 516.9Q133.5 517.5 134.0 517.8Q134.5 518.2 135.2 518.4Q135.8 518.6 136.6 518.6ZM155.4 511.9L157.9 505.8L160.1 505.8L152.9 523.4Q152.7 524.1 152.4 524.5Q152.1 525.0 151.7 525.3Q151.2 525.6 150.7 525.7Q150.1 525.9 149.3 525.9L149.3 525.9L147.1 525.9L147.1 524.0L150.5 524.0L152.1 520.0L146.3 505.8L148.6 505.8L151.0 511.9L153.2 517.4L153.3 517.4L155.4 511.9Z "/><clipPath id="satori_cp-id-1-0-1-0-2"><rect x="178" y="489" width="185" height="36"/></clipPath><mask id="satori_om-id-1-0-1-0-2"><rect x="178" y="489" width="185" height="36" fill="#fff"/></mask><path fill="black" d="M194.7 520.1L190.2 520.1L188.9 515.4L183.6 515.4L182.4 520.1L178.1 520.1L183.4 500.5L189.4 500.5L194.7 520.1ZM188.3 512.0L186.4 504.6L186.2 504.6L184.3 512.0L188.3 512.0ZM196.8 520.1L196.8 516.9L201.0 516.9L201.0 508.9L196.5 508.9L196.5 505.6L201.0 505.6L201.0 503.5Q201.0 501.7 202.1 500.5Q203.2 499.4 205.5 499.4L205.5 499.4L210.4 499.4L210.4 502.6L205.2 502.6L205.2 505.6L210.4 505.6L210.4 508.9L205.2 508.9L205.2 516.9L209.7 516.9L209.7 520.1L196.8 520.1ZM213.5 520.1L213.5 516.9L217.9 516.9L217.9 502.6L213.5 502.6L213.5 499.4L222.1 499.4L222.1 516.9L226.5 516.9L226.5 520.1L213.5 520.1ZM244.4 520.1L242.0 520.1Q240.7 520.1 240.0 519.4Q239.2 518.8 239.0 517.5L239.0 517.5L238.9 517.5Q238.5 519.0 237.3 519.7Q236.2 520.4 234.5 520.4L234.5 520.4Q232.4 520.4 231.1 519.3Q229.9 518.2 229.9 516.1L229.9 516.1Q229.9 513.8 231.5 512.8Q233.2 511.7 236.4 511.7L236.4 511.7L238.7 511.7L238.7 510.9Q238.7 509.6 238.1 509.0Q237.5 508.3 236.0 508.3L236.0 508.3Q234.7 508.3 233.9 508.8Q233.1 509.3 232.5 510.2L232.5 510.2L230.2 508.1Q231.0 506.9 232.5 506.1Q234.1 505.3 236.5 505.3L236.5 505.3Q239.5 505.3 241.2 506.7Q242.8 508.0 242.8 510.8L242.8 510.8L242.8 517.1L244.4 517.1L244.4 520.1ZM236.1 517.7L236.1 517.7Q237.2 517.7 237.9 517.2Q238.7 516.6 238.7 515.6L238.7 515.6L238.7 513.9L236.5 513.9Q233.9 513.9 233.9 515.6L233.9 515.6L233.9 516.2Q233.9 516.9 234.5 517.3Q235.1 517.7 236.1 517.7ZM247.1 520.1L247.1 516.9L251.5 516.9L251.5 502.6L247.1 502.6L247.1 499.4L255.7 499.4L255.7 516.9L260.1 516.9L260.1 520.1L247.1 520.1Z M295.5 520.1L291.0 520.1L289.7 515.4L284.4 515.4L283.2 520.1L278.9 520.1L284.2 500.5L290.2 500.5L295.5 520.1ZM289.1 512.0L287.2 504.6L287.0 504.6L285.1 512.0L289.1 512.0ZM303.8 520.4L303.8 520.4Q301.4 520.4 299.6 519.7Q297.9 519.0 297.0 517.7L297.0 517.7L299.3 515.6Q300.1 516.5 301.3 517.0Q302.4 517.5 303.9 517.5L303.9 517.5Q305.1 517.5 305.8 517.1Q306.5 516.8 306.5 516.0L306.5 516.0Q306.5 515.4 306.0 515.1Q305.5 514.9 304.7 514.7L304.7 514.7L302.4 514.4Q301.4 514.2 300.6 513.9Q299.7 513.7 299.1 513.1Q298.5 512.6 298.1 511.9Q297.8 511.2 297.8 510.2L297.8 510.2Q297.8 507.9 299.5 506.6Q301.2 505.3 304.4 505.3L304.4 505.3Q306.5 505.3 308.0 505.9Q309.5 506.5 310.4 507.5L310.4 507.5L308.3 509.9Q307.7 509.2 306.7 508.7Q305.7 508.2 304.2 508.2L304.2 508.2Q301.8 508.2 301.8 509.7L301.8 509.7Q301.8 510.3 302.3 510.6Q302.8 510.8 303.6 510.9L303.6 510.9L305.9 511.3Q306.9 511.4 307.7 511.7Q308.6 512.0 309.2 512.5Q309.8 513.0 310.2 513.8Q310.6 514.5 310.6 515.5L310.6 515.5Q310.6 517.8 308.8 519.1Q307.1 520.4 303.8 520.4ZM314.2 520.1L314.2 499.4L318.4 499.4L318.4 511.1L318.6 511.1L320.5 508.9L323.5 505.6L328.3 505.6L322.7 511.4L328.9 520.1L323.9 520.1L319.7 513.7L318.4 515.1L318.4 520.1L314.2 520.1ZM338.0 520.4L338.0 520.4Q334.4 520.4 332.5 518.4Q330.6 516.4 330.6 512.9L330.6 512.9Q330.6 511.2 331.1 509.7Q331.6 508.3 332.5 507.3Q333.4 506.3 334.7 505.8Q336.0 505.3 337.6 505.3L337.6 505.3Q339.3 505.3 340.5 505.8Q341.8 506.3 342.7 507.3Q343.6 508.2 344.1 509.6Q344.6 511.0 344.6 512.6L344.6 512.6L344.6 513.9L334.7 513.9L334.7 514.1Q334.7 515.5 335.6 516.4Q336.5 517.2 338.1 517.2L338.1 517.2Q339.4 517.2 340.3 516.7Q341.3 516.3 341.9 515.4L341.9 515.4L344.2 517.9Q343.3 518.9 341.8 519.7Q340.3 520.4 338.0 520.4ZM337.7 508.3L337.7 508.3Q336.3 508.3 335.5 509.1Q334.7 509.9 334.7 511.3L334.7 511.3L334.7 511.6L340.5 511.6L340.5 511.3Q340.5 509.9 339.8 509.1Q339.0 508.3 337.7 508.3ZM348.1 520.1L348.1 516.9L351.4 516.9L351.4 508.9L348.1 508.9L348.1 505.6L355.5 505.6L355.5 509.7L355.7 509.7Q355.9 508.9 356.3 508.2Q356.6 507.5 357.2 506.9Q357.7 506.3 358.5 506.0Q359.3 505.6 360.4 505.6L360.4 505.6L361.7 505.6L361.7 509.5L358.7 509.5Q357.1 509.5 356.3 510.4Q355.5 511.3 355.5 512.6L355.5 512.6L355.5 516.9L360.3 516.9L360.3 520.1L348.1 520.1Z " clip-path="url(#satori_cp-id-1-0-1-0-2)" mask="url(#satori_om-id-1-0-1-0-2)"/><clipPath id="satori_cp-id-1-0-1-1"><rect x="886" y="489" width="185" height="36"/></clipPath><mask id="satori_om-id-1-0-1-1"><rect x="886" y="489" width="185" height="36" fill="#fff"/></mask><path fill="black" d="M902.0 520.1L899.6 520.1Q898.3 520.1 897.6 519.4Q896.8 518.8 896.6 517.5L896.6 517.5L896.5 517.5Q896.1 519.0 894.9 519.7Q893.8 520.4 892.1 520.4L892.1 520.4Q890.0 520.4 888.7 519.3Q887.5 518.2 887.5 516.1L887.5 516.1Q887.5 513.8 889.1 512.8Q890.8 511.7 894.0 511.7L894.0 511.7L896.3 511.7L896.3 510.9Q896.3 509.6 895.7 509.0Q895.1 508.3 893.6 508.3L893.6 508.3Q892.3 508.3 891.5 508.8Q890.7 509.3 890.1 510.2L890.1 510.2L887.8 508.1Q888.6 506.9 890.1 506.1Q891.7 505.3 894.1 505.3L894.1 505.3Q897.1 505.3 898.8 506.7Q900.4 508.0 900.4 510.8L900.4 510.8L900.4 517.1L902.0 517.1L902.0 520.1ZM893.7 517.7L893.7 517.7Q894.8 517.7 895.5 517.2Q896.3 516.6 896.3 515.6L896.3 515.6L896.3 513.9L894.1 513.9Q891.5 513.9 891.5 515.6L891.5 515.6L891.5 516.2Q891.5 516.9 892.1 517.3Q892.7 517.7 893.7 517.7ZM904.8 520.1L904.8 516.9L909.0 516.9L909.0 508.9L904.5 508.9L904.5 505.6L909.0 505.6L909.0 503.5Q909.0 501.7 910.1 500.5Q911.2 499.4 913.5 499.4L913.5 499.4L918.4 499.4L918.4 502.6L913.2 502.6L913.2 505.6L918.4 505.6L918.4 508.9L913.2 508.9L913.2 516.9L917.7 516.9L917.7 520.1L904.8 520.1ZM921.5 520.1L921.5 516.9L925.9 516.9L925.9 502.6L921.5 502.6L921.5 499.4L930.1 499.4L930.1 516.9L934.5 516.9L934.5 520.1L921.5 520.1ZM952.4 520.1L950.0 520.1Q948.7 520.1 948.0 519.4Q947.2 518.8 947.0 517.5L947.0 517.5L946.9 517.5Q946.5 519.0 945.3 519.7Q944.2 520.4 942.5 520.4L942.5 520.4Q940.4 520.4 939.1 519.3Q937.9 518.2 937.9 516.1L937.9 516.1Q937.9 513.8 939.5 512.8Q941.2 511.7 944.4 511.7L944.4 511.7L946.7 511.7L946.7 510.9Q946.7 509.6 946.1 509.0Q945.5 508.3 944.0 508.3L944.0 508.3Q942.7 508.3 941.9 508.8Q941.1 509.3 940.5 510.2L940.5 510.2L938.2 508.1Q939.0 506.9 940.5 506.1Q942.1 505.3 944.5 505.3L944.5 505.3Q947.5 505.3 949.2 506.7Q950.8 508.0 950.8 510.8L950.8 510.8L950.8 517.1L952.4 517.1L952.4 520.1ZM944.1 517.7L944.1 517.7Q945.2 517.7 945.9 517.2Q946.7 516.6 946.7 515.6L946.7 515.6L946.7 513.9L944.5 513.9Q941.9 513.9 941.9 515.6L941.9 515.6L941.9 516.2Q941.9 516.9 942.5 517.3Q943.1 517.7 944.1 517.7ZM955.1 520.1L955.1 516.9L959.5 516.9L959.5 502.6L955.1 502.6L955.1 499.4L963.7 499.4L963.7 516.9L968.1 516.9L968.1 520.1L955.1 520.1ZM978.4 520.4L978.4 520.4Q976.8 520.4 976.1 519.7Q975.5 519.1 975.5 518.1L975.5 518.1L975.5 517.1Q975.5 516.2 976.1 515.5Q976.8 514.8 978.4 514.8L978.4 514.8Q980.0 514.8 980.7 515.5Q981.3 516.2 981.3 517.1L981.3 517.1L981.3 518.1Q981.3 519.1 980.7 519.7Q980.0 520.4 978.4 520.4ZM995.8 520.4L995.8 520.4Q994.1 520.4 992.7 519.9Q991.4 519.4 990.4 518.4Q989.5 517.4 989.0 516.0Q988.5 514.6 988.5 512.9L988.5 512.9Q988.5 511.1 989.0 509.7Q989.5 508.3 990.4 507.3Q991.4 506.3 992.7 505.8Q994.1 505.3 995.8 505.3L995.8 505.3Q998.1 505.3 999.6 506.3Q1001.0 507.2 1001.8 508.8L1001.8 508.8L998.6 510.6Q998.2 509.7 997.6 509.2Q996.9 508.6 995.8 508.6L995.8 508.6Q994.3 508.6 993.6 509.4Q992.8 510.3 992.8 511.7L992.8 511.7L992.8 514.0Q992.8 515.5 993.6 516.3Q994.3 517.1 995.8 517.1L995.8 517.1Q997.0 517.1 997.7 516.6Q998.4 516.0 998.9 515.1L998.9 515.1L1002.0 516.9Q1001.2 518.5 999.7 519.5Q998.2 520.4 995.8 520.4ZM1012.0 520.4L1012.0 520.4Q1010.3 520.4 1009.0 519.9Q1007.6 519.4 1006.7 518.4Q1005.8 517.4 1005.3 516.0Q1004.7 514.6 1004.7 512.9L1004.7 512.9Q1004.7 511.1 1005.3 509.7Q1005.8 508.3 1006.7 507.3Q1007.6 506.3 1009.0 505.8Q1010.3 505.3 1012.0 505.3L1012.0 505.3Q1013.7 505.3 1015.0 505.8Q1016.4 506.3 1017.3 507.3Q1018.2 508.3 1018.7 509.7Q1019.3 511.1 1019.3 512.9L1019.3 512.9Q1019.3 514.6 1018.7 516.0Q1018.2 517.4 1017.3 518.4Q1016.4 519.4 1015.0 519.9Q1013.7 520.4 1012.0 520.4ZM1012.0 517.3L1012.0 517.3Q1013.4 517.3 1014.2 516.5Q1015.0 515.6 1015.0 514.0L1015.0 514.0L1015.0 511.7Q1015.0 510.1 1014.2 509.3Q1013.4 508.4 1012.0 508.4L1012.0 508.4Q1010.6 508.4 1009.8 509.3Q1009.0 510.1 1009.0 511.7L1009.0 511.7L1009.0 514.0Q1009.0 515.6 1009.8 516.5Q1010.6 517.3 1012.0 517.3ZM1031.4 520.1L1031.4 517.5L1031.2 517.5Q1030.6 518.8 1029.7 519.6Q1028.7 520.4 1026.9 520.4L1026.9 520.4Q1025.7 520.4 1024.7 520.0Q1023.7 519.5 1023.0 518.6Q1022.3 517.7 1021.9 516.3Q1021.5 514.8 1021.5 512.9L1021.5 512.9Q1021.5 510.9 1021.9 509.5Q1022.3 508.1 1023.0 507.1Q1023.7 506.2 1024.7 505.8Q1025.7 505.3 1026.9 505.3L1026.9 505.3Q1027.8 505.3 1028.5 505.5Q1029.1 505.8 1029.7 506.1Q1030.2 506.5 1030.5 507.1Q1030.9 507.6 1031.2 508.3L1031.2 508.3L1031.4 508.3L1031.4 499.4L1035.5 499.4L1035.5 520.1L1031.4 520.1ZM1028.7 517.2L1028.7 517.2Q1029.8 517.2 1030.6 516.7Q1031.4 516.1 1031.4 515.0L1031.4 515.0L1031.4 510.7Q1031.4 509.6 1030.6 509.1Q1029.8 508.5 1028.7 508.5L1028.7 508.5Q1027.3 508.5 1026.6 509.4Q1025.8 510.2 1025.8 511.7L1025.8 511.7L1025.8 514.0Q1025.8 515.5 1026.6 516.4Q1027.3 517.2 1028.7 517.2ZM1046.0 520.4L1046.0 520.4Q1042.4 520.4 1040.5 518.4Q1038.6 516.4 1038.6 512.9L1038.6 512.9Q1038.6 511.2 1039.1 509.7Q1039.6 508.3 1040.5 507.3Q1041.4 506.3 1042.7 505.8Q1044.0 505.3 1045.6 505.3L1045.6 505.3Q1047.3 505.3 1048.5 505.8Q1049.8 506.3 1050.7 507.3Q1051.6 508.2 1052.1 509.6Q1052.6 511.0 1052.6 512.6L1052.6 512.6L1052.6 513.9L1042.7 513.9L1042.7 514.1Q1042.7 515.5 1043.6 516.4Q1044.5 517.2 1046.1 517.2L1046.1 517.2Q1047.4 517.2 1048.3 516.7Q1049.3 516.3 1049.9 515.4L1049.9 515.4L1052.2 517.9Q1051.3 518.9 1049.8 519.7Q1048.3 520.4 1046.0 520.4ZM1045.7 508.3L1045.7 508.3Q1044.3 508.3 1043.5 509.1Q1042.7 509.9 1042.7 511.3L1042.7 511.3L1042.7 511.6L1048.5 511.6L1048.5 511.3Q1048.5 509.9 1047.8 509.1Q1047.0 508.3 1045.7 508.3ZM1062.2 520.4L1062.2 520.4Q1059.8 520.4 1058.0 519.7Q1056.3 519.0 1055.4 517.7L1055.4 517.7L1057.7 515.6Q1058.5 516.5 1059.7 517.0Q1060.8 517.5 1062.3 517.5L1062.3 517.5Q1063.5 517.5 1064.2 517.1Q1064.9 516.8 1064.9 516.0L1064.9 516.0Q1064.9 515.4 1064.4 515.1Q1063.9 514.9 1063.1 514.7L1063.1 514.7L1060.8 514.4Q1059.8 514.2 1059.0 513.9Q1058.1 513.7 1057.5 513.1Q1056.9 512.6 1056.5 511.9Q1056.2 511.2 1056.2 510.2L1056.2 510.2Q1056.2 507.9 1057.9 506.6Q1059.6 505.3 1062.8 505.3L1062.8 505.3Q1064.9 505.3 1066.4 505.9Q1067.9 506.5 1068.8 507.5L1068.8 507.5L1066.7 509.9Q1066.1 509.2 1065.1 508.7Q1064.1 508.2 1062.6 508.2L1062.6 508.2Q1060.2 508.2 1060.2 509.7L1060.2 509.7Q1060.2 510.3 1060.7 510.6Q1061.2 510.8 1062.0 510.9L1062.0 510.9L1064.3 511.3Q1065.3 511.4 1066.1 511.7Q1067.0 512.0 1067.6 512.5Q1068.2 513.0 1068.6 513.8Q1069.0 514.5 1069.0 515.5L1069.0 515.5Q1069.0 517.8 1067.2 519.1Q1065.5 520.4 1062.2 520.4Z " clip-path="url(#satori_cp-id-1-0-1-1)" mask="url(#satori_om-id-1-0-1-1)"/></svg>