<svg width="1200" height="630" viewBox="0 0 1200 630" xmlns="http://www.w3.org/2000/svg"><rect x="0" y="0" width="1200" height="630" fill="#fefbfb"/><defs><clipPath id="satori_bc-id-0"><path x="105" y="39" width="1056" height="504" d="M109,39 h1048 a4,4 0 0 1 4,4 v496 a4,4 0 0 1 -4,4 h-1048 a4,4 0 0 1 -4,-4 v-496 a4,4 0 0 1 4,-4"/></clipPath></defs><g opacity="0.9"><path x="105" y="39" width="1056" height="504" fill="#ecebeb" d="M109,39 h1048 a4,4 0 0 1 4,4 v496 a4,4 0 0 1 -4,4 h-1048 a4,4 0 0 1 -4,-4 v-496 a4,4 0 0 1 4,-4"/><path width="1056" height="504" clip-path="url(#satori_bc-id-0)" fill="none" stroke="#000" stroke-width="8" d="M106.172,40.172 A4,4 0 0 1 109,39 h1048 a4,4 0 0 1 4,4 v496 a4,4 0 0 1 -4,4 h-1048 a4,4 0 0 1 -4,-4 v-496 A4,4 0 0 1 106.172,40.172"/></g><defs><clipPath id="satori_bc-id-1"><path x="72" y="63" width="1056" height="504" d="M76,63 h1048 a4,4 0 0 1 4,4 v496 a4,4 0 0 1 -4,4 h-1048 a4,4 0 0 1 -4,-4 v-496 a4,4 0 0 1 4,-4"/></clipPath></defs><path x="72" y="63" width="1056" height="504" fill="#fefbfb" d="M76,63 h1048 a4,4 0 0 1 4,4 v496 a4,4 0 0 1 -4,4 h-1048 a4,4 0 0 1 -4,-4 v-496 a4,4 0 0 1 4,-4"/><path width="1056" height="504" clip-path="url(#satori_bc-id-1)" fill="none" stroke="#000" stroke-width="8" d="M73.172,64.172 A4,4 0 0 1 76,63 h1048 a4,4 0 0 1 4,4 v496 a4,4 0 0 1 -4,4 h-1048 a4,4 0 0 1 -4,-4 v-496 A4,4 0 0 1 73.172,64.172"/><clipPath id="satori_cp-id-1-0-0"><rect x="128" y="103" width="944" height="187"/></clipPath><mask id="satori_om-id-1-0-0"><rect x="128" y="103" width="944" height="187" fill="#fff"/></mask><path fill="black" d="M144.3 183.0L133.5 183.0L133.5 132.7L152.9 132.7Q156.6 132.7 159.5 133.8Q162.3 134.9 164.3 137.0Q166.3 139.1 167.3 142.1Q168.3 145.0 168.3 148.7L168.3 148.7Q168.3 152.4 167.3 155.3Q166.3 158.3 164.3 160.3Q162.3 162.4 159.5 163.5Q156.6 164.7 152.9 164.7L152.9 164.7L144.3 164.7L144.3 183.0ZM144.3 141.4L144.3 156.0L150.2 156.0Q154.0 156.0 155.5 154.5Q156.9 153.1 156.9 149.8L156.9 149.8L156.9 147.6Q156.9 144.3 155.5 142.8Q154.0 141.4 150.2 141.4L150.2 141.4L144.3 141.4ZM176.5 183.0L176.5 174.7L185.1 174.7L185.1 154.1L176.5 154.1L176.5 145.8L195.8 145.8L195.8 156.3L196.3 156.3Q196.8 154.3 197.7 152.4Q198.6 150.5 200.0 149.0Q201.4 147.5 203.4 146.7Q205.4 145.8 208.1 145.8L208.1 145.8L211.7 145.8L211.7 155.6L203.7 155.6Q199.8 155.6 197.8 157.9Q195.8 160.3 195.8 163.7L195.8 163.7L195.8 174.7L208.0 174.7L208.0 183.0L176.5 183.0ZM237.0 183.8L237.0 183.8Q227.6 183.8 222.8 178.6Q218.0 173.4 218.0 164.5L218.0 164.5Q218.0 160.0 219.3 156.3Q220.5 152.7 222.9 150.2Q225.2 147.6 228.5 146.3Q231.9 144.9 236.1 144.9L236.1 144.9Q240.2 144.9 243.6 146.3Q246.9 147.6 249.2 150.0Q251.5 152.5 252.7 156.0Q254.0 159.5 254.0 163.8L254.0 163.8L254.0 167.0L228.6 167.0L228.6 167.6Q228.6 171.2 230.8 173.4Q233.0 175.6 237.4 175.6L237.4 175.6Q240.7 175.6 243.1 174.3Q245.4 173.1 247.2 171.0L247.2 171.0L252.9 177.3Q250.8 179.9 246.9 181.9Q243.0 183.8 237.0 183.8ZM236.1 152.6L236.1 152.6Q232.7 152.6 230.6 154.7Q228.6 156.8 228.6 160.4L228.6 160.4L228.6 161.0L243.6 161.0L243.6 160.4Q243.6 156.7 241.6 154.7Q239.6 152.6 236.1 152.6ZM285.9 183.0L285.9 176.2L285.4 176.2Q284.0 179.6 281.4 181.7Q278.8 183.8 274.4 183.8L274.4 183.8Q271.3 183.8 268.7 182.7Q266.2 181.5 264.3 179.1Q262.5 176.8 261.5 173.1Q260.4 169.4 260.4 164.4L260.4 164.4Q260.4 159.3 261.5 155.7Q262.5 152.0 264.3 149.6Q266.2 147.2 268.7 146.1Q271.3 144.9 274.4 144.9L274.4 144.9Q276.6 144.9 278.3 145.5Q280.1 146.1 281.4 147.1Q282.7 148.1 283.7 149.5Q284.7 150.9 285.4 152.6L285.4 152.6L285.9 152.6L285.9 129.7L296.6 129.7L296.6 183.0L285.9 183.0ZM279.0 175.5L279.0 175.5Q281.8 175.5 283.8 174.2Q285.9 172.8 285.9 169.8L285.9 169.8L285.9 158.9Q285.9 156.0 283.8 154.6Q281.8 153.2 279.0 153.2L279.0 153.2Q275.4 153.2 273.4 155.4Q271.5 157.6 271.5 161.5L271.5 161.5L271.5 167.3Q271.5 171.1 273.4 173.3Q275.4 175.5 279.0 175.5ZM323.4 183.8L323.4 183.8Q314.0 183.8 309.2 178.6Q304.4 173.4 304.4 164.5L304.4 164.5Q304.4 160.0 305.7 156.3Q306.9 152.7 309.3 150.2Q311.6 147.6 314.9 146.3Q318.3 144.9 322.5 144.9L322.5 144.9Q326.6 144.9 330.0 146.3Q333.3 147.6 335.6 150.0Q337.9 152.5 339.1 156.0Q340.4 159.5 340.4 163.8L340.4 163.8L340.4 167.0L315.0 167.0L315.0 167.6Q315.0 171.2 317.2 173.4Q319.4 175.6 323.8 175.6L323.8 175.6Q327.1 175.6 329.5 174.3Q331.8 173.1 333.6 171.0L333.6 171.0L339.3 177.3Q337.2 179.9 333.3 181.9Q329.4 183.8 323.4 183.8ZM322.5 152.6L322.5 152.6Q319.1 152.6 317.0 154.7Q315.0 156.8 315.0 160.4L315.0 160.4L315.0 161.0L330.0 161.0L330.0 160.4Q330.0 156.7 328.0 154.7Q326.0 152.6 322.5 152.6ZM349.1 183.0L349.1 174.7L360.1 174.7L360.1 154.1L348.4 154.1L348.4 145.8L360.1 145.8L360.1 140.4Q360.1 135.6 362.8 132.7Q365.6 129.7 371.4 129.7L371.4 129.7L384.0 129.7L384.0 138.0L370.7 138.0L370.7 145.8L384.0 145.8L384.0 154.1L370.7 154.1L370.7 174.7L382.4 174.7L382.4 183.0L349.1 183.0ZM411.1 141.0L411.1 141.0Q407.5 141.0 406.1 139.6Q404.7 138.1 404.7 136.0L404.7 136.0L404.7 133.9Q404.7 131.8 406.1 130.3Q407.5 128.9 411.1 128.9L411.1 128.9Q414.7 128.9 416.1 130.3Q417.5 131.8 417.5 133.9L417.5 133.9L417.5 136.0Q417.5 138.1 416.1 139.6Q414.7 141.0 411.1 141.0ZM394.0 183.0L394.0 174.7L405.8 174.7L405.8 154.1L394.0 154.1L394.0 145.8L416.4 145.8L416.4 174.7L427.4 174.7L427.4 183.0L394.0 183.0ZM445.7 183.0L435.1 183.0L435.1 145.8L445.7 145.8L445.7 152.6L446.2 152.6Q446.8 151.0 447.8 149.6Q448.7 148.2 450.0 147.2Q451.4 146.2 453.1 145.5Q454.9 144.9 457.1 144.9L457.1 144.9Q459.8 144.9 462.0 145.8Q464.2 146.7 465.8 148.5Q467.4 150.3 468.3 152.9Q469.2 155.5 469.2 158.9L469.2 158.9L469.2 183.0L458.6 183.0L458.6 160.3Q458.6 153.1 452.3 153.1L452.3 153.1Q451.1 153.1 449.9 153.5Q448.7 153.8 447.8 154.5Q446.8 155.2 446.3 156.2Q445.7 157.2 445.7 158.5L445.7 158.5L445.7 183.0ZM496.2 183.8L496.2 183.8Q486.8 183.8 482.0 178.6Q477.2 173.4 477.2 164.5L477.2 164.5Q477.2 160.0 478.5 156.3Q479.7 152.7 482.1 150.2Q484.4 147.6 487.7 146.3Q491.1 144.9 495.3 144.9L495.3 144.9Q499.4 144.9 502.8 146.3Q506.1 147.6 508.4 150.0Q510.7 152.5 511.9 156.0Q513.2 159.5 513.2 163.8L513.2 163.8L513.2 167.0L487.8 167.0L487.8 167.6Q487.8 171.2 490.0 173.4Q492.2 175.6 496.6 175.6L496.6 175.6Q499.9 175.6 502.3 174.3Q504.6 173.1 506.4 171.0L506.4 171.0L512.1 177.3Q510.0 179.9 506.1 181.9Q502.2 183.8 496.2 183.8ZM495.3 152.6L495.3 152.6Q491.9 152.6 489.8 154.7Q487.8 156.8 487.8 160.4L487.8 160.4L487.8 161.0L502.8 161.0L502.8 160.4Q502.8 156.7 500.8 154.7Q498.8 152.6 495.3 152.6ZM545.1 183.0L545.1 176.2L544.6 176.2Q543.2 179.6 540.6 181.7Q538.0 183.8 533.6 183.8L533.6 183.8Q530.5 183.8 527.9 182.7Q525.4 181.5 523.5 179.1Q521.7 176.8 520.7 173.1Q519.6 169.4 519.6 164.4L519.6 164.4Q519.6 159.3 520.7 155.7Q521.7 152.0 523.5 149.6Q525.4 147.2 527.9 146.1Q530.5 144.9 533.6 144.9L533.6 144.9Q535.8 144.9 537.5 145.5Q539.3 146.1 540.6 147.1Q541.9 148.1 542.9 149.5Q543.9 150.9 544.6 152.6L544.6 152.6L545.1 152.6L545.1 129.7L555.8 129.7L555.8 183.0L545.1 183.0ZM538.2 175.5L538.2 175.5Q541.0 175.5 543.0 174.2Q545.1 172.8 545.1 169.8L545.1 169.8L545.1 158.9Q545.1 156.0 543.0 154.6Q541.0 153.2 538.2 153.2L538.2 153.2Q534.6 153.2 532.6 155.4Q530.7 157.6 530.7 161.5L530.7 161.5L530.7 167.3Q530.7 171.1 532.6 173.3Q534.6 175.5 538.2 175.5Z M626.3 183.8L626.3 183.8Q621.9 183.8 618.4 182.5Q614.9 181.2 612.5 178.6Q610.1 176.1 608.8 172.5Q607.5 168.9 607.5 164.4L607.5 164.4Q607.5 159.8 608.8 156.2Q610.1 152.6 612.5 150.1Q614.9 147.6 618.4 146.3Q621.9 144.9 626.2 144.9L626.2 144.9Q632.4 144.9 636.1 147.4Q639.8 149.9 641.7 154.0L641.7 154.0L633.5 158.5Q632.5 156.3 630.9 154.9Q629.3 153.4 626.2 153.4L626.2 153.4Q622.6 153.4 620.6 155.6Q618.6 157.7 618.6 161.4L618.6 161.4L618.6 167.4Q618.6 171.1 620.6 173.2Q622.6 175.3 626.4 175.3L626.4 175.3Q629.5 175.3 631.2 173.9Q633.0 172.4 634.2 170.1L634.2 170.1L642.3 174.7Q640.3 178.8 636.4 181.3Q632.6 183.8 626.3 183.8ZM668 183.8L668 183.8Q663.7 183.8 660.2 182.5Q656.8 181.2 654.4 178.6Q651.9 176.1 650.6 172.5Q649.4 168.9 649.4 164.4L649.4 164.4Q649.4 159.8 650.6 156.2Q651.9 152.6 654.4 150.1Q656.8 147.6 660.2 146.3Q663.7 144.9 668 144.9L668 144.9Q672.3 144.9 675.8 146.3Q679.2 147.6 681.6 150.1Q684.1 152.6 685.4 156.2Q686.6 159.8 686.6 164.4L686.6 164.4Q686.6 168.9 685.4 172.5Q684.1 176.1 681.6 178.6Q679.2 181.2 675.8 182.5Q672.3 183.8 668 183.8ZM668 175.9L668 175.9Q671.6 175.9 673.6 173.7Q675.6 171.4 675.6 167.3L675.6 167.3L675.6 161.4Q675.6 157.3 673.6 155.1Q671.6 152.9 668 152.9L668 152.9Q664.4 152.9 662.4 155.1Q660.4 157.3 660.4 161.4L660.4 161.4L660.4 167.3Q660.4 171.4 662.4 173.7Q664.4 175.9 668 175.9ZM694.5 183.0L694.5 174.7L705.9 174.7L705.9 138.0L694.5 138.0L694.5 129.7L716.5 129.7L716.5 174.7L727.9 174.7L727.9 183.0L694.5 183.0ZM754.4 183.8L754.4 183.8Q750.1 183.8 746.6 182.5Q743.2 181.2 740.8 178.6Q738.3 176.1 737.0 172.5Q735.8 168.9 735.8 164.4L735.8 164.4Q735.8 159.8 737.0 156.2Q738.3 152.6 740.8 150.1Q743.2 147.6 746.6 146.3Q750.1 144.9 754.4 144.9L754.4 144.9Q758.7 144.9 762.2 146.3Q765.6 147.6 768.0 150.1Q770.5 152.6 771.8 156.2Q773.0 159.8 773.0 164.4L773.0 164.4Q773.0 168.9 771.8 172.5Q770.5 176.1 768.0 178.6Q765.6 181.2 762.2 182.5Q758.7 183.8 754.4 183.8ZM754.4 175.9L754.4 175.9Q758.0 175.9 760.0 173.7Q762.0 171.4 762.0 167.3L762.0 167.3L762.0 161.4Q762.0 157.3 760.0 155.1Q758.0 152.9 754.4 152.9L754.4 152.9Q750.8 152.9 748.8 155.1Q746.8 157.3 746.8 161.4L746.8 161.4L746.8 167.3Q746.8 171.4 748.8 173.7Q750.8 175.9 754.4 175.9ZM781.3 183.0L781.3 174.7L789.9 174.7L789.9 154.1L781.3 154.1L781.3 145.8L800.6 145.8L800.6 156.3L801.1 156.3Q801.6 154.3 802.5 152.4Q803.4 150.5 804.8 149.0Q806.2 147.5 808.2 146.7Q810.2 145.8 812.9 145.8L812.9 145.8L816.5 145.8L816.5 155.6L808.5 155.6Q804.6 155.6 802.6 157.9Q800.6 160.3 800.6 163.7L800.6 163.7L800.6 174.7L812.8 174.7L812.8 183.0L781.3 183.0Z M149.2 277.4L149.2 277.4Q143.0 277.4 138.4 275.5Q133.8 273.7 131.5 270.4L131.5 270.4L137.5 264.9Q139.7 267.3 142.6 268.6Q145.5 269.9 149.2 269.9L149.2 269.9Q152.4 269.9 154.2 269.0Q156.0 268.0 156.0 266.0L156.0 266.0Q156.0 264.4 154.8 263.8Q153.6 263.2 151.4 262.8L151.4 262.8L145.4 261.9Q142.9 261.5 140.7 260.7Q138.6 260.0 137 258.7Q135.4 257.4 134.5 255.5Q133.5 253.7 133.5 251.0L133.5 251.0Q133.5 245.2 138.0 241.8Q142.5 238.5 150.5 238.5L150.5 238.5Q156.0 238.5 159.9 240.0Q163.7 241.5 166.0 244.2L166.0 244.2L160.7 250.3Q159.0 248.5 156.4 247.2Q153.8 246.0 150.2 246.0L150.2 246.0Q144.0 246.0 144.0 249.8L144.0 249.8Q144.0 251.4 145.2 252.0Q146.4 252.6 148.6 253.0L148.6 253.0L154.5 253.9Q157.0 254.3 159.2 255.1Q161.3 255.8 163.0 257.1Q164.6 258.4 165.5 260.3Q166.4 262.2 166.4 264.8L166.4 264.8Q166.4 270.6 161.9 274.0Q157.4 277.4 149.2 277.4ZM194.3 277.4L194.3 277.4Q189.9 277.4 186.4 276.1Q182.9 274.8 180.5 272.2Q178.1 269.7 176.8 266.1Q175.5 262.5 175.5 258.0L175.5 258.0Q175.5 253.4 176.8 249.8Q178.1 246.2 180.5 243.7Q182.9 241.2 186.4 239.9Q189.9 238.5 194.2 238.5L194.2 238.5Q200.4 238.5 204.1 241.0Q207.8 243.5 209.7 247.6L209.7 247.6L201.5 252.1Q200.5 249.9 198.9 248.5Q197.3 247.0 194.2 247.0L194.2 247.0Q190.6 247.0 188.6 249.2Q186.6 251.3 186.6 255.0L186.6 255.0L186.6 261.0Q186.6 264.7 188.6 266.8Q190.6 268.9 194.4 268.9L194.4 268.9Q197.5 268.9 199.2 267.5Q201.0 266.0 202.2 263.7L202.2 263.7L210.3 268.3Q208.3 272.4 204.4 274.9Q200.6 277.4 194.3 277.4ZM219.1 276.6L219.1 223.3L229.7 223.3L229.7 246.2L230.2 246.2Q230.8 244.6 231.8 243.2Q232.7 241.8 234.0 240.8Q235.4 239.8 237.1 239.1Q238.9 238.5 241.1 238.5L241.1 238.5Q243.8 238.5 246.0 239.4Q248.2 240.3 249.8 242.1Q251.4 243.9 252.3 246.5Q253.2 249.1 253.2 252.5L253.2 252.5L253.2 276.6L242.6 276.6L242.6 253.9Q242.6 246.7 236.3 246.7L236.3 246.7Q235.1 246.7 233.9 247.1Q232.7 247.4 231.8 248.1Q230.8 248.8 230.3 249.8Q229.7 250.8 229.7 252.1L229.7 252.1L229.7 276.6L219.1 276.6ZM280.2 277.4L280.2 277.4Q270.8 277.4 266.0 272.2Q261.2 267.0 261.2 258.1L261.2 258.1Q261.2 253.6 262.5 249.9Q263.7 246.3 266.1 243.8Q268.4 241.2 271.7 239.9Q275.1 238.5 279.3 238.5L279.3 238.5Q283.4 238.5 286.8 239.9Q290.1 241.2 292.4 243.6Q294.7 246.1 295.9 249.6Q297.2 253.1 297.2 257.4L297.2 257.4L297.2 260.6L271.8 260.6L271.8 261.2Q271.8 264.8 274.0 267.0Q276.2 269.2 280.6 269.2L280.6 269.2Q283.9 269.2 286.3 267.9Q288.6 266.7 290.4 264.6L290.4 264.6L296.1 270.9Q294.0 273.5 290.1 275.5Q286.2 277.4 280.2 277.4ZM279.3 246.2L279.3 246.2Q275.9 246.2 273.8 248.3Q271.8 250.4 271.8 254.0L271.8 254.0L271.8 254.6L286.8 254.6L286.8 254.0Q286.8 250.3 284.8 248.3Q282.8 246.2 279.3 246.2ZM311.5 276.6L303.0 276.6L303.0 239.4L311.5 239.4L311.5 244.9L312.0 244.9Q312.9 242.3 314.5 240.4Q316.1 238.5 319.1 238.5L319.1 238.5Q324.5 238.5 325.7 244.9L325.7 244.9L326.1 244.9Q326.6 243.6 327.2 242.4Q327.9 241.3 328.8 240.4Q329.7 239.5 331.0 239.0Q332.3 238.5 334.1 238.5L334.1 238.5Q341.8 238.5 341.8 250.0L341.8 250.0L341.8 276.6L333.3 276.6L333.3 251.1Q333.3 248.5 332.4 247.4Q331.5 246.4 330.0 246.4L330.0 246.4Q328.7 246.4 327.7 247.3Q326.7 248.2 326.7 250.1L326.7 250.1L326.7 276.6L318.1 276.6L318.1 251.1Q318.1 248.5 317.3 247.4Q316.4 246.4 315.0 246.4L315.0 246.4Q313.5 246.4 312.5 247.3Q311.5 248.2 311.5 250.1L311.5 250.1L311.5 276.6ZM366.6 277.4L366.6 277.4Q357.2 277.4 352.4 272.2Q347.6 267.0 347.6 258.1L347.6 258.1Q347.6 253.6 348.9 249.9Q350.1 246.3 352.5 243.8Q354.8 241.2 358.1 239.9Q361.5 238.5 365.7 238.5L365.7 238.5Q369.8 238.5 373.2 239.9Q376.5 241.2 378.8 243.6Q381.1 246.1 382.3 249.6Q383.6 253.1 383.6 257.4L383.6 257.4L383.6 260.6L358.2 260.6L358.2 261.2Q358.2 264.8 360.4 267.0Q362.6 269.2 367.0 269.2L367.0 269.2Q370.3 269.2 372.7 267.9Q375.0 266.7 376.8 264.6L376.8 264.6L382.5 270.9Q380.4 273.5 376.5 275.5Q372.6 277.4 366.6 277.4ZM365.7 246.2L365.7 246.2Q362.3 246.2 360.2 248.3Q358.2 250.4 358.2 254.0L358.2 254.0L358.2 254.6L373.2 254.6L373.2 254.0Q373.2 250.3 371.2 248.3Q369.2 246.2 365.7 246.2ZM408.4 277.4L408.4 277.4Q402.2 277.4 397.6 275.5Q393.0 273.7 390.7 270.4L390.7 270.4L396.7 264.9Q398.9 267.3 401.8 268.6Q404.7 269.9 408.4 269.9L408.4 269.9Q411.6 269.9 413.4 269.0Q415.2 268.0 415.2 266.0L415.2 266.0Q415.2 264.4 414.0 263.8Q412.8 263.2 410.6 262.8L410.6 262.8L404.6 261.9Q402.1 261.5 399.9 260.7Q397.8 260.0 396.2 258.7Q394.6 257.4 393.7 255.5Q392.7 253.7 392.7 251.0L392.7 251.0Q392.7 245.2 397.2 241.8Q401.7 238.5 409.7 238.5L409.7 238.5Q415.2 238.5 419.1 240.0Q422.9 241.5 425.2 244.2L425.2 244.2L419.9 250.3Q418.2 248.5 415.6 247.2Q413.0 246.0 409.4 246.0L409.4 246.0Q403.2 246.0 403.2 249.8L403.2 249.8Q403.2 251.4 404.4 252.0Q405.6 252.6 407.8 253.0L407.8 253.0L413.7 253.9Q416.2 254.3 418.4 255.1Q420.5 255.8 422.2 257.1Q423.8 258.4 424.7 260.3Q425.6 262.2 425.6 264.8L425.6 264.8Q425.6 270.6 421.1 274.0Q416.6 277.4 408.4 277.4Z " clip-path="url(#satori_cp-id-1-0-0)" mask="url(#satori_om-id-1-0-0)"/><path fill="black" d="M130.7 520.3L130.7 499.6L132.9 499.6L132.9 508.2L133.0 508.2Q134.4 505.5 137.5 505.5L137.5 505.5Q140.1 505.5 141.6 507.5Q143.1 509.5 143.1 513.0L143.1 513.0Q143.1 516.6 141.6 518.6Q140.1 520.6 137.5 520.6L137.5 520.6Q134.4 520.6 133.0 517.9L133.0 517.9L132.9 517.9L132.9 520.3L130.7 520.3ZM136.6 518.6L136.6 518.6Q138.6 518.6 139.6 517.4Q140.7 516.2 140.7 514.3L140.7 514.3L140.7 511.8Q140.7 509.9 139.6 508.7Q138.6 507.5 136.6 507.5L136.6 507.5Q135.8 507.5 135.2 507.7Q134.5 507.9 134.0 508.2Q133.5 508.6 133.2 509.2Q132.9 509.7 132.9 510.4L132.9 510.4L132.9 515.7Q132.9 516.4 133.2 516.9Q133.5 517.5 134.0 517.8Q134.5 518.2 135.2 518.4Q135.8 518.6 136.6 518.6ZM155.4 511.9L157.9 505.8L160.1 505.8L152.9 523.4Q152.7 524.1 152.4 524.5Q152.1 525.0 151.7 525.3Q151.2 525.6 150.7 525.7Q150.1 525.9 149.3 525.9L149.3 525.9L147.1 525.9L147.1 524.0L150.5 524.0L152.1 520.0L146.3 505.8L148.6 505.8L151.0 511.9L153.2 517.4L153.3 517.4L155.4 511.9Z "/><clipPath id="satori_cp-id-1-0-1-0-2"><rect x="178" y="489" width="185" height="36"/></clipPath><mask id="satori_om-id-1-0-1-0-2"><rect x="178" y="489" width="185" height="36" fill="#fff"/></mask><path fill="black" d="M194.7 520.1L190.2 520.1L188.9 515.4L183.6 515.4L182.4 520.1L178.1 520.1L183.4 500.5L189.4 500.5L194.7 520.1ZM188.3 512.0L186.4 504.6L186.2 504.6L184.3 512.0L188.3 512.0ZM196.8 520.1L196.8 516.9L201.0 516.9L201.0 508.9L196.5 508.9L196.5 505.6L201.0 505.6L201.0 503.5Q201.0 501.7 202.1 500.5Q203.2 499.4 205.5 499.4L205.5 499.4L210.4 499.4L210.4 502.6L205.2 502.6L205.2 505.6L210.4 505.6L210.4 508.9L205.2 508.9L205.2 516.9L209.7 516.9L209.7 520.1L196.8 520.1ZM213.5 520.1L213.5 516.9L217.9 516.9L217.9 502.6L213.5 502.6L213.5 499.4L222.1 499.4L222.1 516.9L226.5 516.9L226.5 520.1L213.5 520.1ZM244.4 520.1L242.0 520.1Q240.7 520.1 240.0 519.4Q239.2 518.8 239.0 517.5L239.0 517.5L238.9 517.5Q238.5 519.0 237.3 519.7Q236.2 520.4 234.5 520.4L234.5 520.4Q232.4 520.4 231.1 519.3Q229.9 518.2 229.9 516.1L229.9 516.1Q229.9 513.8 231.5 512.8Q233.2 511.7 236.4 511.7L236.4 511.7L238.7 511.7L238.7 510.9Q238.7 509.6 238.1 509.0Q237.5 508.3 236.0 508.3L236.0 508.3Q234.7 508.3 233.9 508.8Q233.1 509.3 232.5 510.2L232.5 510.2L230.2 508.1Q231.0 506.9 232.5 506.1Q234.1 505.3 236.5 505.3L236.5 505.3Q239.5 505.3 241.2 506.7Q242.8 508.0 242.8 510.8L242.8 510.8L242.8 517.1L244.4 517.1L244.4 520.1ZM236.1 517.7L236.1 517.7Q237.2 517.7 237.9 517.2Q238.7 516.6 238.7 515.6L238.7 515.6L238.7 513.9L236.5 513.9Q233.9 513.9 233.9 515.6L233.9 515.6L233.9 516.2Q233.9 516.9 234.5 517.3Q235.1 517.7 236.1 517.7ZM247.1 520.1L247.1 516.9L251.5 516.9L251.5 502.6L247.1 502.6L247.1 499.4L255.7 499.4L255.7 516.9L260.1 516.9L260.1 520.1L247.1 520.1Z M295.5 520.1L291.0 520.1L289.7 515.4L284.4 515.4L283.2 520.1L278.9 520.1L284.2 500.5L290.2 500.5L295.5 520.1ZM289.1 512.0L287.2 504.6L287.0 504.6L285.1 512.0L289.1 512.0ZM303.8 520.4L303.8 520.4Q301.4 520.4 299.6 519.7Q297.9 519.0 297.0 517.7L297.0 517.7L299.3 515.6Q300.1 516.5 301.3 517.0Q302.4 517.5 303.9 517.5L303.9 517.5Q305.1 517.5 305.8 517.1Q306.5 516.8 306.5 516.0L306.5 516.0Q306.5 515.4 306.0 515.1Q305.5 514.9 304.7 514.7L304.7 514.7L302.4 514.4Q301.4 514.2 300.6 513.9Q299.7 513.7 299.1 513.1Q298.5 512.6 298.1 511.9Q297.8 511.2 297.8 510.2L297.8 510.2Q297.8 507.9 299.5 506.6Q301.2 505.3 304.4 505.3L304.4 505.3Q306.5 505.3 308.0 505.9Q309.5 506.5 310.4 507.5L310.4 507.5L308.3 509.9Q307.7 509.2 306.7 508.7Q305.7 508.2 304.2 508.2L304.2 508.2Q301.8 508.2 301.8 509.7L301.8 509.7Q301.8 510.3 302.3 510.6Q302.8 510.8 303.6 510.9L303.6 510.9L305.9 511.3Q306.9 511.4 307.7 511.7Q308.6 512.0 309.2 512.5Q309.8 513.0 310.2 513.8Q310.6 514.5 310.6 515.5L310.6 515.5Q310.6 517.8 308.8 519.1Q307.1 520.4 303.8 520.4ZM314.2 520.1L314.2 499.4L318.4 499.4L318.4 511.1L318.6 511.1L320.5 508.9L323.5 505.6L328.3 505.6L322.7 511.4L328.9 520.1L323.9 520.1L319.7 513.7L318.4 515.1L318.4 520.1L314.2 520.1ZM338.0 520.4L338.0 520.4Q334.4 520.4 332.5 518.4Q330.6 516.4 330.6 512.9L330.6 512.9Q330.6 511.2 331.1 509.7Q331.6 508.3 332.5 507.3Q333.4 506.3 334.7 505.8Q336.0 505.3 337.6 505.3L337.6 505.3Q339.3 505.3 340.5 505.8Q341.8 506.3 342.7 507.3Q343.6 508.2 344.1 509.6Q344.6 511.0 344.6 512.6L344.6 512.6L344.6 513.9L334.7 513.9L334.7 514.1Q334.7 515.5 335.6 516.4Q336.5 517.2 338.1 517.2L338.1 517.2Q339.4 517.2 340.3 516.7Q341.3 516.3 341.9 515.4L341.9 515.4L344.2 517.9Q343.3 518.9 341.8 519.7Q340.3 520.4 338.0 520.4ZM337.7 508.3L337.7 508.3Q336.3 508.3 335.5 509.1Q334.7 509.9 334.7 511.3L334.7 511.3L334.7 511.6L340.5 511.6L340.5 511.3Q340.5 509.9 339.8 509.1Q339.0 508.3 337.7 508.3ZM348.1 520.1L348.1 516.9L351.4 516.9L351.4 508.9L348.1 508.9L348.1 505.6L355.5 505.6L355.5 509.7L355.7 509.7Q355.9 508.9 356.3 508.2Q356.6 507.5 357.2 506.9Q357.7 506.3 358.5 506.0Q359.3 505.6 360.4 505.6L360.4 505.6L361.7 505.6L361.7 509.5L358.7 509.5Q357.1 509.5 356.3 510.4Q355.5 511.3 355.5 512.6L355.5 512.6L355.5 516.9L360.3 516.9L360.3 520.1L348.1 520.1Z " clip-path="url(#satori_cp-id-1-0-1-0-2)" mask="url(#satori_om-id-1-0-1-0-2)"/><clipPath id="satori_cp-id-1-0-1-1"><rect x="886" y="489" width="185" height="36"/></clipPath><mask id="satori_om-id-1-0-1-1"><rect x="886" y="489" width="185" height="36" fill="#fff"/></mask><path fill="black" d="M902.0 520.1L899.6 520.1Q898.3 520.1 897.6 519.4Q896.8 518.8 896.6 517.5L896.6 517.5L896.5 517.5Q896.1 519.0 894.9 519.7Q893.8 520.4 892.1 520.4L892.1 520.4Q890.0 520.4 888.7 519.3Q887.5 518.2 887.5 516.1L887.5 516.1Q887.5 513.8 889.1 512.8Q890.8 511.7 894.0 511.7L894.0 511.7L896.3 511.7L896.3 510.9Q896.3 509.6 895.7 509.0Q895.1 508.3 893.6 508.3L893.6 508.3Q892.3 508.3 891.5 508.8Q890.7 509.3 890.1 510.2L890.1 510.2L887.8 508.1Q888.6 506.9 890.1 506.1Q891.7 505.3 894.1 505.3L894.1 505.3Q897.1 505.3 898.8 506.7Q900.4 508.0 900.4 510.8L900.4 510.8L900.4 517.1L902.0 517.1L902.0 520.1ZM893.7 517.7L893.7 517.7Q894.8 517.7 895.5 517.2Q896.3 516.6 896.3 515.6L896.3 515.6L896.3 513.9L894.1 513.9Q891.5 513.9 891.5 515.6L891.5 515.6L891.5 516.2Q891.5 516.9 892.1 517.3Q892.7 517.7 893.7 517.7ZM904.8 520.1L904.8 516.9L909.0 516.9L909.0 508.9L904.5 508.9L904.5 505.6L909.0 505.6L909.0 503.5Q909.0 501.7 910.1 500.5Q911.2 499.4 913.5 499.4L913.5 499.4L918.4 499.4L918.4 502.6L913.2 502.6L913.2 505.6L918.4 505.6L918.4 508.9L913.2 508.9L913.2 516.9L917.7 516.9L917.7 520.1L904.8 520.1ZM921.5 520.1L921.5 516.9L925.9 516.9L925.9 502.6L921.5 502.6L921.5 499.4L930.1 499.4L930.1 516.9L934.5 516.9L934.5 520.1L921.5 520.1ZM952.4 520.1L950.0 520.1Q948.7 520.1 948.0 519.4Q947.2 518.8 947.0 517.5L947.0 517.5L946.9 517.5Q946.5 519.0 945.3 519.7Q944.2 520.4 942.5 520.4L942.5 520.4Q940.4 520.4 939.1 519.3Q937.9 518.2 937.9 516.1L937.9 516.1Q937.9 513.8 939.5 512.8Q941.2 511.7 944.4 511.7L944.4 511.7L946.7 511.7L946.7 510.9Q946.7 509.6 946.1 509.0Q945.5 508.3 944.0 508.3L944.0 508.3Q942.7 508.3 941.9 508.8Q941.1 509.3 940.5 510.2L940.5 510.2L938.2 508.1Q939.0 506.9 940.5 506.1Q942.1 505.3 944.5 505.3L944.5 505.3Q947.5 505.3 949.2 506.7Q950.8 508.0 950.8 510.8L950.8 510.8L950.8 517.1L952.4 517.1L952.4 520.1ZM944.1 517.7L944.1 517.7Q945.2 517.7 945.9 517.2Q946.7 516.6 946.7 515.6L946.7 515.6L946.7 513.9L944.5 513.9Q941.9 513.9 941.9 515.6L941.9 515.6L941.9 516.2Q941.9 516.9 942.5 517.3Q943.1 517.7 944.1 517.7ZM955.1 520.1L955.1 516.9L959.5 516.9L959.5 502.6L955.1 502.6L955.1 499.4L963.7 499.4L963.7 516.9L968.1 516.9L968.1 520.1L955.1 520.1ZM978.4 520.4L978.4 520.4Q976.8 520.4 976.1 519.7Q975.5 519.1 975.5 518.1L975.5 518.1L975.5 517.1Q975.5 516.2 976.1 515.5Q976.8 514.8 978.4 514.8L978.4 514.8Q980.0 514.8 980.7 515.5Q981.3 516.2 981.3 517.1L981.3 517.1L981.3 518.1Q981.3 519.1 980.7 519.7Q980.0 520.4 978.4 520.4ZM995.8 520.4L995.8 520.4Q994.1 520.4 992.7 519.9Q991.4 519.4 990.4 518.4Q989.5 517.4 989.0 516.0Q988.5 514.6 988.5 512.9L988.5 512.9Q988.5 511.1 989.0 509.7Q989.5 508.3 990.4 507.3Q991.4 506.3 992.7 505.8Q994.1 505.3 995.8 505.3L995.8 505.3Q998.1 505.3 999.6 506.3Q1001.0 507.2 1001.8 508.8L1001.8 508.8L998.6 510.6Q998.2 509.7 997.6 509.2Q996.9 508.6 995.8 508.6L995.8 508.6Q994.3 508.6 993.6 509.4Q992.8 510.3 992.8 511.7L992.8 511.7L992.8 514.0Q992.8 515.5 993.6 516.3Q994.3 517.1 995.8 517.1L995.8 517.1Q997.0 517.1 997.7 516.6Q998.4 516.0 998.9 515.1L998.9 515.1L1002.0 516.9Q1001.2 518.5 999.7 519.5Q998.2 520.4 995.8 520.4ZM1012.0 520.4L1012.0 520.4Q1010.3 520.4 1009.0 519.9Q1007.6 519.4 1006.7 518.4Q1005.8 517.4 1005.3 516.0Q1004.7 514.6 1004.7 512.9L1004.7 512.9Q1004.7 511.1 1005.3 509.7Q1005.8 508.3 1006.7 507.3Q1007.6 506.3 1009.0 505.8Q1010.3 505.3 1012.0 505.3L1012.0 505.3Q1013.7 505.3 1015.0 505.8Q1016.4 506.3 1017.3 507.3Q1018.2 508.3 1018.7 509.7Q1019.3 511.1 1019.3 512.9L1019.3 512.9Q1019.3 514.6 1018.7 516.0Q1018.2 517.4 1017.3 518.4Q1016.4 519.4 1015.0 519.9Q1013.7 520.4 1012.0 520.4ZM1012.0 517.3L1012.0 517.3Q1013.4 517.3 1014.2 516.5Q1015.0 515.6 1015.0 514.0L1015.0 514.0L1015.0 511.7Q1015.0 510.1 1014.2 509.3Q1013.4 508.4 1012.0 508.4L1012.0 508.4Q1010.6 508.4 1009.8 509.3Q1009.0 510.1 1009.0 511.7L1009.0 511.7L1009.0 514.0Q1009.0 515.6 1009.8 516.5Q1010.6 517.3 1012.0 517.3ZM1031.4 520.1L1031.4 517.5L1031.2 517.5Q1030.6 518.8 1029.7 519.6Q1028.7 520.4 1026.9 520.4L1026.9 520.4Q1025.7 520.4 1024.7 520.0Q1023.7 519.5 1023.0 518.6Q1022.3 517.7 1021.9 516.3Q1021.5 514.8 1021.5 512.9L1021.5 512.9Q1021.5 510.9 1021.9 509.5Q1022.3 508.1 1023.0 507.1Q1023.7 506.2 1024.7 505.8Q1025.7 505.3 1026.9 505.3L1026.9 505.3Q1027.8 505.3 1028.5 505.5Q1029.1 505.8 1029.7 506.1Q1030.2 506.5 1030.5 507.1Q1030.9 507.6 1031.2 508.3L1031.2 508.3L1031.4 508.3L1031.4 499.4L1035.5 499.4L1035.5 520.1L1031.4 520.1ZM1028.7 517.2L1028.7 517.2Q1029.8 517.2 1030.6 516.7Q1031.4 516.1 1031.4 515.0L1031.4 515.0L1031.4 510.7Q1031.4 509.6 1030.6 509.1Q1029.8 508.5 1028.7 508.5L1028.7 508.5Q1027.3 508.5 1026.6 509.4Q1025.8 510.2 1025.8 511.7L1025.8 511.7L1025.8 514.0Q1025.8 515.5 1026.6 516.4Q1027.3 517.2 1028.7 517.2ZM1046.0 520.4L1046.0 520.4Q1042.4 520.4 1040.5 518.4Q1038.6 516.4 1038.6 512.9L1038.6 512.9Q1038.6 511.2 1039.1 509.7Q1039.6 508.3 1040.5 507.3Q1041.4 506.3 1042.7 505.8Q1044.0 505.3 1045.6 505.3L1045.6 505.3Q1047.3 505.3 1048.5 505.8Q1049.8 506.3 1050.7 507.3Q1051.6 508.2 1052.1 509.6Q1052.6 511.0 1052.6 512.6L1052.6 512.6L1052.6 513.9L1042.7 513.9L1042.7 514.1Q1042.7 515.5 1043.6 516.4Q1044.5 517.2 1046.1 517.2L1046.1 517.2Q1047.4 517.2 1048.3 516.7Q1049.3 516.3 1049.9 515.4L1049.9 515.4L1052.2 517.9Q1051.3 518.9 1049.8 519.7Q1048.3 520.4 1046.0 520.4ZM1045.7 508.3L1045.7 508.3Q1044.3 508.3 1043.5 509.1Q1042.7 509.9 1042.7 511.3L1042.7 511.3L1042.7 511.6L1048.5 511.6L1048.5 511.3Q1048.5 509.9 1047.8 509.1Q1047.0 508.3 1045.7 508.3ZM1062.2 520.4L1062.2 520.4Q1059.8 520.4 1058.0 519.7Q1056.3 519.0 1055.4 517.7L1055.4 517.7L1057.7 515.6Q1058.5 516.5 1059.7 517.0Q1060.8 517.5 1062.3 517.5L1062.3 517.5Q1063.5 517.5 1064.2 517.1Q1064.9 516.8 1064.9 516.0L1064.9 516.0Q1064.9 515.4 1064.4 515.1Q1063.9 514.9 1063.1 514.7L1063.1 514.7L1060.8 514.4Q1059.8 514.2 1059.0 513.9Q1058.1 513.7 1057.5 513.1Q1056.9 512.6 1056.5 511.9Q1056.2 511.2 1056.2 510.2L1056.2 510.2Q1056.2 507.9 1057.9 506.6Q1059.6 505.3 1062.8 505.3L1062.8 505.3Q1064.9 505.3 1066.4 505.9Q1067.9 506.5 1068.8 507.5L1068.8 507.5L1066.7 509.9Q1066.1 509.2 1065.1 508.7Q1064.1 508.2 1062.6 508.2L1062.6 508.2Q1060.2 508.2 1060.2 509.7L1060.2 509.7Q1060.2 510.3 1060.7 510.6Q1061.2 510.8 1062.0 510.9L1062.0 510.9L1064.3 511.3Q1065.3 511.4 1066.1 511.7Q1067.0 512.0 1067.6 512.5Q1068.2 513.0 1068.6 513.8Q1069.0 514.5 1069.0 515.5L1069.0 515.5Q1069.0 517.8 1067.2 519.1Q1065.5 520.4 1062.2 520.4Z " clip-path="url(#satori_cp-id-1-0-1-1)" mask="url(#satori_om-id-1-0-1-1)"/></svg>