<svg width="1200" height="630" viewBox="0 0 1200 630" xmlns="http://www.w3.org/2000/svg"><rect x="0" y="0" width="1200" height="630" fill="#fefbfb"/><defs><clipPath id="satori_bc-id-0"><path x="105" y="39" width="1056" height="504" d="M109,39 h1048 a4,4 0 0 1 4,4 v496 a4,4 0 0 1 -4,4 h-1048 a4,4 0 0 1 -4,-4 v-496 a4,4 0 0 1 4,-4"/></clipPath></defs><g opacity="0.9"><path x="105" y="39" width="1056" height="504" fill="#ecebeb" d="M109,39 h1048 a4,4 0 0 1 4,4 v496 a4,4 0 0 1 -4,4 h-1048 a4,4 0 0 1 -4,-4 v-496 a4,4 0 0 1 4,-4"/><path width="1056" height="504" clip-path="url(#satori_bc-id-0)" fill="none" stroke="#000" stroke-width="8" d="M106.172,40.172 A4,4 0 0 1 109,39 h1048 a4,4 0 0 1 4,4 v496 a4,4 0 0 1 -4,4 h-1048 a4,4 0 0 1 -4,-4 v-496 A4,4 0 0 1 106.172,40.172"/></g><defs><clipPath id="satori_bc-id-1"><path x="72" y="63" width="1056" height="504" d="M76,63 h1048 a4,4 0 0 1 4,4 v496 a4,4 0 0 1 -4,4 h-1048 a4,4 0 0 1 -4,-4 v-496 a4,4 0 0 1 4,-4"/></clipPath></defs><path x="72" y="63" width="1056" height="504" fill="#fefbfb" d="M76,63 h1048 a4,4 0 0 1 4,4 v496 a4,4 0 0 1 -4,4 h-1048 a4,4 0 0 1 -4,-4 v-496 a4,4 0 0 1 4,-4"/><path width="1056" height="504" clip-path="url(#satori_bc-id-1)" fill="none" stroke="#000" stroke-width="8" d="M73.172,64.172 A4,4 0 0 1 76,63 h1048 a4,4 0 0 1 4,4 v496 a4,4 0 0 1 -4,4 h-1048 a4,4 0 0 1 -4,-4 v-496 A4,4 0 0 1 73.172,64.172"/><clipPath id="satori_cp-id-1-0-0"><rect x="128" y="103" width="944" height="187"/></clipPath><mask id="satori_om-id-1-0-0"><rect x="128" y="103" width="944" height="187" fill="#fff"/></mask><path fill="black" d="M169.5 141.6L155 141.6L155 183.0L144.2 183.0L144.2 141.6L129.7 141.6L129.7 132.7L169.5 132.7L169.5 141.6ZM212.4 183.0L206.3 183.0Q203.0 183.0 200.9 181.3Q198.9 179.6 198.6 176.4L198.6 176.4L198.2 176.4Q197.2 180.1 194.2 181.9Q191.2 183.8 186.9 183.8L186.9 183.8Q181.5 183.8 178.2 180.9Q174.9 178.0 174.9 172.7L174.9 172.7Q174.9 166.9 179.2 164.1Q183.4 161.3 191.6 161.3L191.6 161.3L197.6 161.3L197.6 159.4Q197.6 156.1 196.1 154.4Q194.5 152.7 190.9 152.7L190.9 152.7Q187.5 152.7 185.4 154.0Q183.3 155.3 181.8 157.4L181.8 157.4L176.0 152.2Q177.8 149.0 181.8 147.0Q185.8 144.9 192.1 144.9L192.1 144.9Q199.7 144.9 204.0 148.4Q208.3 151.9 208.3 159.0L208.3 159.0L208.3 175.2L212.4 175.2L212.4 183.0ZM190.9 176.8L190.9 176.8Q193.7 176.8 195.7 175.5Q197.6 174.1 197.6 171.5L197.6 171.5L197.6 167.0L191.9 167.0Q185.4 167.0 185.4 171.4L185.4 171.4L185.4 172.9Q185.4 174.8 186.9 175.8Q188.4 176.8 190.9 176.8ZM238.3 141.0L238.3 141.0Q234.7 141.0 233.3 139.6Q231.9 138.1 231.9 136.0L231.9 136.0L231.9 133.9Q231.9 131.8 233.3 130.3Q234.7 128.9 238.3 128.9L238.3 128.9Q241.9 128.9 243.3 130.3Q244.7 131.8 244.7 133.9L244.7 133.9L244.7 136.0Q244.7 138.1 243.3 139.6Q241.9 141.0 238.3 141.0ZM221.2 183.0L221.2 174.7L233.0 174.7L233.0 154.1L221.2 154.1L221.2 145.8L243.6 145.8L243.6 174.7L254.6 174.7L254.6 183.0L221.2 183.0ZM262.5 183.0L262.5 174.7L273.9 174.7L273.9 138.0L262.5 138.0L262.5 129.7L284.5 129.7L284.5 174.7L295.9 174.7L295.9 183.0L262.5 183.0ZM305.7 183.0L301.3 145.8L310.2 145.8L312.8 175.9L313.5 175.9L317.9 145.8L327.3 145.8L331.6 175.9L332.3 175.9L335.1 145.8L343.5 145.8L339.1 183.0L326.4 183.0L322.8 157.3L322.0 157.3L318.4 183.0L305.7 183.0ZM367.9 141.0L367.9 141.0Q364.3 141.0 362.9 139.6Q361.5 138.1 361.5 136.0L361.5 136.0L361.5 133.9Q361.5 131.8 362.9 130.3Q364.3 128.9 367.9 128.9L367.9 128.9Q371.5 128.9 372.9 130.3Q374.3 131.8 374.3 133.9L374.3 133.9L374.3 136.0Q374.3 138.1 372.9 139.6Q371.5 141.0 367.9 141.0ZM350.8 183.0L350.8 174.7L362.6 174.7L362.6 154.1L350.8 154.1L350.8 145.8L373.2 145.8L373.2 174.7L384.2 174.7L384.2 183.0L350.8 183.0ZM402.5 183.0L391.9 183.0L391.9 145.8L402.5 145.8L402.5 152.6L403.0 152.6Q403.6 151.0 404.6 149.6Q405.5 148.2 406.8 147.2Q408.2 146.2 409.9 145.5Q411.7 144.9 413.9 144.9L413.9 144.9Q416.6 144.9 418.8 145.8Q421.0 146.7 422.6 148.5Q424.2 150.3 425.1 152.9Q426.0 155.5 426.0 158.9L426.0 158.9L426.0 183.0L415.4 183.0L415.4 160.3Q415.4 153.1 409.1 153.1L409.1 153.1Q407.9 153.1 406.7 153.5Q405.5 153.8 404.6 154.5Q403.6 155.2 403.1 156.2Q402.5 157.2 402.5 158.5L402.5 158.5L402.5 183.0ZM458.7 183.0L458.7 176.2L458.2 176.2Q456.8 179.6 454.2 181.7Q451.6 183.8 447.2 183.8L447.2 183.8Q444.1 183.8 441.5 182.7Q439.0 181.5 437.1 179.1Q435.3 176.8 434.3 173.1Q433.2 169.4 433.2 164.4L433.2 164.4Q433.2 159.3 434.3 155.7Q435.3 152.0 437.1 149.6Q439.0 147.2 441.5 146.1Q444.1 144.9 447.2 144.9L447.2 144.9Q449.4 144.9 451.1 145.5Q452.9 146.1 454.2 147.1Q455.5 148.1 456.5 149.5Q457.5 150.9 458.2 152.6L458.2 152.6L458.7 152.6L458.7 129.7L469.4 129.7L469.4 183.0L458.7 183.0ZM451.8 175.5L451.8 175.5Q454.6 175.5 456.6 174.2Q458.7 172.8 458.7 169.8L458.7 169.8L458.7 158.9Q458.7 156.0 456.6 154.6Q454.6 153.2 451.8 153.2L451.8 153.2Q448.2 153.2 446.2 155.4Q444.3 157.6 444.3 161.5L444.3 161.5L444.3 167.3Q444.3 171.1 446.2 173.3Q448.2 175.5 451.8 175.5Z M558.3 141.6L543.8 141.6L543.8 183.0L533 183.0L533 141.6L518.5 141.6L518.5 132.7L558.3 132.7L558.3 141.6ZM585.4 161.4L591.0 145.8L601.8 145.8L584.3 188.9Q582.7 193.0 579.9 195.2Q577.2 197.4 572.5 197.4L572.5 197.4L565.1 197.4L565.1 189.1L574.0 189.1L576.3 182.7L561.4 145.8L572.8 145.8L578.2 161.4L581.6 172.2L582.2 172.2L585.4 161.4ZM607.4 197.4L607.4 145.8L618.1 145.8L618.1 152.6L618.6 152.6Q620.0 149.3 622.6 147.1Q625.2 144.9 629.6 144.9L629.6 144.9Q632.7 144.9 635.3 146.1Q637.8 147.2 639.7 149.6Q641.5 152.0 642.5 155.7Q643.6 159.3 643.6 164.4L643.6 164.4Q643.6 169.4 642.5 173.1Q641.5 176.8 639.7 179.1Q637.8 181.5 635.3 182.7Q632.7 183.8 629.6 183.8L629.6 183.8Q625.2 183.8 622.6 181.7Q620.0 179.6 618.6 176.2L618.6 176.2L618.1 176.2L618.1 197.4L607.4 197.4ZM625.0 175.5L625.0 175.5Q628.6 175.5 630.6 173.3Q632.5 171.1 632.5 167.3L632.5 167.3L632.5 161.5Q632.5 157.6 630.6 155.4Q628.6 153.2 625.0 153.2L625.0 153.2Q622.2 153.2 620.2 154.6Q618.1 156.0 618.1 158.9L618.1 158.9L618.1 169.8Q618.1 172.8 620.2 174.2Q622.2 175.5 625.0 175.5ZM668.0 183.8L668.0 183.8Q663.7 183.8 660.2 182.5Q656.8 181.2 654.4 178.6Q651.9 176.1 650.6 172.5Q649.4 168.9 649.4 164.4L649.4 164.4Q649.4 159.8 650.6 156.2Q651.9 152.6 654.4 150.1Q656.8 147.6 660.2 146.3Q663.7 144.9 668.0 144.9L668.0 144.9Q672.3 144.9 675.8 146.3Q679.2 147.6 681.6 150.1Q684.1 152.6 685.4 156.2Q686.6 159.8 686.6 164.4L686.6 164.4Q686.6 168.9 685.4 172.5Q684.1 176.1 681.6 178.6Q679.2 181.2 675.8 182.5Q672.3 183.8 668.0 183.8ZM668.0 175.9L668.0 175.9Q671.6 175.9 673.6 173.7Q675.6 171.4 675.6 167.3L675.6 167.3L675.6 161.4Q675.6 157.3 673.6 155.1Q671.6 152.9 668.0 152.9L668.0 152.9Q664.4 152.9 662.4 155.1Q660.4 157.3 660.4 161.4L660.4 161.4L660.4 167.3Q660.4 171.4 662.4 173.7Q664.4 175.9 668.0 175.9ZM731.6 186.7L731.6 186.7Q731.6 192.6 726.6 195.4Q721.6 198.2 711.0 198.2L711.0 198.2Q705.7 198.2 702.2 197.6Q698.7 197.0 696.7 195.8Q694.6 194.7 693.8 193.1Q693.0 191.5 693.0 189.6L693.0 189.6Q693.0 186.5 694.9 184.9Q696.7 183.2 700.1 182.4L700.1 182.4L700.1 181.9Q697.7 181.2 696.3 179.9Q694.9 178.6 694.9 176.1L694.9 176.1Q694.9 173.4 696.8 172.1Q698.6 170.8 701.6 170.1L701.6 170.1L701.6 169.6Q698.3 168.0 696.5 165.2Q694.6 162.3 694.6 158.2L694.6 158.2Q694.6 154.9 695.8 152.5Q696.9 150.0 699.1 148.3Q701.2 146.7 704.1 145.8Q707.1 144.9 710.8 144.9L710.8 144.9Q714.3 144.9 717.3 145.7L717.3 145.7L717.3 143.7Q717.3 141.6 718.8 140.1Q720.3 138.7 723.0 138.7L723.0 138.7L729.6 138.7L729.6 146.4L720.6 146.4L720.6 147.1Q723.7 148.7 725.3 151.5Q727.0 154.2 727.0 158.2L727.0 158.2Q727.0 161.4 725.9 163.9Q724.7 166.3 722.6 168.0Q720.4 169.7 717.4 170.6Q714.4 171.4 710.8 171.4L710.8 171.4Q709.1 171.4 707.6 171.3Q706.1 171.1 704.7 170.7L704.7 170.7Q703.9 171.1 703.4 171.8Q702.8 172.4 702.8 173.4L702.8 173.4Q702.8 174.3 703.3 174.8Q703.7 175.3 704.5 175.6Q705.2 175.8 706.2 175.9Q707.2 176.0 708.3 176.0L708.3 176.0L716.8 176.0Q720.8 176.0 723.6 176.8Q726.4 177.6 728.2 179.0Q730.0 180.4 730.8 182.4Q731.6 184.3 731.6 186.7ZM721.5 187.5L721.5 187.5Q721.5 186.0 720.3 185.2Q719.2 184.4 716.0 184.4L716.0 184.4L703.2 184.4Q701.8 185.6 701.8 187.4L701.8 187.4Q701.8 189.1 703.2 190.3Q704.7 191.4 708.2 191.4L708.2 191.4L714.5 191.4Q718.2 191.4 719.8 190.4Q721.5 189.4 721.5 187.5ZM710.8 164.7L710.8 164.7Q714.0 164.7 715.5 163.1Q717.0 161.5 717.0 159.0L717.0 159.0L717.0 157.3Q717.0 154.9 715.5 153.3Q714.0 151.7 710.8 151.7L710.8 151.7Q707.6 151.7 706.2 153.3Q704.7 154.9 704.7 157.3L704.7 157.3L704.7 159.0Q704.7 161.5 706.2 163.1Q707.6 164.7 710.8 164.7ZM738.1 183.0L738.1 174.7L746.7 174.7L746.7 154.1L738.1 154.1L738.1 145.8L757.4 145.8L757.4 156.3L757.9 156.3Q758.4 154.3 759.3 152.4Q760.2 150.5 761.6 149.0Q763.0 147.5 765.0 146.7Q767.0 145.8 769.7 145.8L769.7 145.8L773.3 145.8L773.3 155.6L765.3 155.6Q761.4 155.6 759.4 157.9Q757.4 160.3 757.4 163.7L757.4 163.7L757.4 174.7L769.6 174.7L769.6 183.0L738.1 183.0ZM817.2 183.0L811.1 183.0Q807.8 183.0 805.7 181.3Q803.7 179.6 803.4 176.4L803.4 176.4L803.0 176.4Q802.0 180.1 799.0 181.9Q796.0 183.8 791.7 183.8L791.7 183.8Q786.3 183.8 783.0 180.9Q779.7 178.0 779.7 172.7L779.7 172.7Q779.7 166.9 784.0 164.1Q788.2 161.3 796.4 161.3L796.4 161.3L802.4 161.3L802.4 159.4Q802.4 156.1 800.9 154.4Q799.3 152.7 795.7 152.7L795.7 152.7Q792.3 152.7 790.2 154.0Q788.1 155.3 786.6 157.4L786.6 157.4L780.8 152.2Q782.6 149.0 786.6 147.0Q790.6 144.9 796.9 144.9L796.9 144.9Q804.5 144.9 808.8 148.4Q813.1 151.9 813.1 159.0L813.1 159.0L813.1 175.2L817.2 175.2L817.2 183.0ZM795.7 176.8L795.7 176.8Q798.5 176.8 800.5 175.5Q802.4 174.1 802.4 171.5L802.4 171.5L802.4 167.0L796.7 167.0Q790.2 167.0 790.2 171.4L790.2 171.4L790.2 172.9Q790.2 174.8 791.7 175.8Q793.2 176.8 795.7 176.8ZM823.4 197.4L823.4 145.8L834.1 145.8L834.1 152.6L834.6 152.6Q836.0 149.3 838.6 147.1Q841.2 144.9 845.6 144.9L845.6 144.9Q848.7 144.9 851.3 146.1Q853.8 147.2 855.7 149.6Q857.5 152.0 858.5 155.7Q859.6 159.3 859.6 164.4L859.6 164.4Q859.6 169.4 858.5 173.1Q857.5 176.8 855.7 179.1Q853.8 181.5 851.3 182.7Q848.7 183.8 845.6 183.8L845.6 183.8Q841.2 183.8 838.6 181.7Q836.0 179.6 834.6 176.2L834.6 176.2L834.1 176.2L834.1 197.4L823.4 197.4ZM841.0 175.5L841.0 175.5Q844.6 175.5 846.6 173.3Q848.5 171.1 848.5 167.3L848.5 167.3L848.5 161.5Q848.5 157.6 846.6 155.4Q844.6 153.2 841.0 153.2L841.0 153.2Q838.2 153.2 836.2 154.6Q834.1 156.0 834.1 158.9L834.1 158.9L834.1 169.8Q834.1 172.8 836.2 174.2Q838.2 175.5 841.0 175.5ZM867.1 183.0L867.1 129.7L877.7 129.7L877.7 152.6L878.2 152.6Q878.8 151.0 879.8 149.6Q880.7 148.2 882.0 147.2Q883.4 146.2 885.1 145.5Q886.9 144.9 889.1 144.9L889.1 144.9Q891.8 144.9 894.0 145.8Q896.2 146.7 897.8 148.5Q899.4 150.3 900.3 152.9Q901.2 155.5 901.2 158.9L901.2 158.9L901.2 183.0L890.6 183.0L890.6 160.3Q890.6 153.1 884.3 153.1L884.3 153.1Q883.1 153.1 881.9 153.5Q880.7 153.8 879.8 154.5Q878.8 155.2 878.3 156.2Q877.7 157.2 877.7 158.5L877.7 158.5L877.7 183.0L867.1 183.0ZM931.0 161.4L936.6 145.8L947.4 145.8L929.9 188.9Q928.3 193.0 925.5 195.2Q922.8 197.4 918.1 197.4L918.1 197.4L910.7 197.4L910.7 189.1L919.6 189.1L921.9 182.7L907.0 145.8L918.4 145.8L923.8 161.4L927.2 172.2L927.8 172.2L931.0 161.4Z M144.3 276.6L133.5 276.6L133.5 226.3L152.9 226.3Q156.6 226.3 159.5 227.4Q162.3 228.5 164.3 230.6Q166.3 232.7 167.3 235.7Q168.3 238.6 168.3 242.3L168.3 242.3Q168.3 246.0 167.3 248.9Q166.3 251.9 164.3 253.9Q162.3 256.0 159.5 257.1Q156.6 258.3 152.9 258.3L152.9 258.3L144.3 258.3L144.3 276.6ZM144.3 235.0L144.3 249.6L150.2 249.6Q154.0 249.6 155.5 248.1Q156.9 246.7 156.9 243.4L156.9 243.4L156.9 241.2Q156.9 237.9 155.5 236.4Q154.0 235.0 150.2 235.0L150.2 235.0L144.3 235.0ZM176.1 276.6L176.1 268.3L187.5 268.3L187.5 231.6L176.1 231.6L176.1 223.3L198.1 223.3L198.1 268.3L209.5 268.3L209.5 276.6L176.1 276.6ZM242.3 276.6L242.3 269.8L241.8 269.8Q240.6 273.0 238.0 275.2Q235.4 277.4 230.9 277.4L230.9 277.4Q228.2 277.4 226.0 276.5Q223.8 275.6 222.2 273.8Q220.6 272.0 219.7 269.4Q218.8 266.8 218.8 263.4L218.8 263.4L218.8 239.4L229.4 239.4L229.4 262.0Q229.4 269.2 235.7 269.2L235.7 269.2Q236.9 269.2 238.1 268.9Q239.3 268.6 240.2 267.9Q241.1 267.2 241.7 266.2Q242.3 265.2 242.3 263.8L242.3 263.8L242.3 239.4L252.9 239.4L252.9 276.6L242.3 276.6ZM299.6 280.3L299.6 280.3Q299.6 286.2 294.6 289.0Q289.6 291.8 279.0 291.8L279.0 291.8Q273.7 291.8 270.2 291.2Q266.7 290.6 264.7 289.4Q262.6 288.3 261.8 286.7Q261.0 285.1 261.0 283.2L261.0 283.2Q261.0 280.1 262.9 278.5Q264.7 276.8 268.1 276.0L268.1 276.0L268.1 275.5Q265.7 274.8 264.3 273.5Q262.9 272.2 262.9 269.7L262.9 269.7Q262.9 267.0 264.8 265.7Q266.6 264.4 269.6 263.7L269.6 263.7L269.6 263.2Q266.3 261.6 264.5 258.8Q262.6 255.9 262.6 251.8L262.6 251.8Q262.6 248.5 263.8 246.1Q264.9 243.6 267.1 241.9Q269.2 240.3 272.1 239.4Q275.1 238.5 278.8 238.5L278.8 238.5Q282.3 238.5 285.3 239.3L285.3 239.3L285.3 237.3Q285.3 235.2 286.8 233.7Q288.3 232.3 291.0 232.3L291.0 232.3L297.6 232.3L297.6 240.0L288.6 240.0L288.6 240.7Q291.7 242.3 293.3 245.1Q295.0 247.8 295.0 251.8L295.0 251.8Q295.0 255.0 293.9 257.5Q292.7 259.9 290.6 261.6Q288.4 263.3 285.4 264.2Q282.4 265.0 278.8 265.0L278.8 265.0Q277.1 265.0 275.6 264.9Q274.1 264.7 272.7 264.3L272.7 264.3Q271.9 264.7 271.4 265.4Q270.8 266.0 270.8 267.0L270.8 267.0Q270.8 267.9 271.3 268.4Q271.7 268.9 272.5 269.2Q273.2 269.4 274.2 269.5Q275.2 269.6 276.3 269.6L276.3 269.6L284.8 269.6Q288.8 269.6 291.6 270.4Q294.4 271.2 296.2 272.6Q298.0 274.0 298.8 276.0Q299.6 277.9 299.6 280.3ZM289.5 281.1L289.5 281.1Q289.5 279.6 288.3 278.8Q287.2 278.0 284.0 278.0L284.0 278.0L271.2 278.0Q269.8 279.2 269.8 281.0L269.8 281.0Q269.8 282.7 271.2 283.9Q272.7 285.0 276.2 285.0L276.2 285.0L282.5 285.0Q286.2 285.0 287.8 284.0Q289.5 283.0 289.5 281.1ZM278.8 258.3L278.8 258.3Q282.0 258.3 283.5 256.7Q285.0 255.1 285.0 252.6L285.0 252.6L285.0 250.9Q285.0 248.5 283.5 246.9Q282.0 245.3 278.8 245.3L278.8 245.3Q275.6 245.3 274.2 246.9Q272.7 248.5 272.7 250.9L272.7 250.9L272.7 252.6Q272.7 255.1 274.2 256.7Q275.6 258.3 278.8 258.3ZM324.7 234.6L324.7 234.6Q321.1 234.6 319.7 233.2Q318.3 231.7 318.3 229.6L318.3 229.6L318.3 227.5Q318.3 225.4 319.7 223.9Q321.1 222.5 324.7 222.5L324.7 222.5Q328.3 222.5 329.7 223.9Q331.1 225.4 331.1 227.5L331.1 227.5L331.1 229.6Q331.1 231.7 329.7 233.2Q328.3 234.6 324.7 234.6ZM307.6 276.6L307.6 268.3L319.4 268.3L319.4 247.7L307.6 247.7L307.6 239.4L330.0 239.4L330.0 268.3L341.0 268.3L341.0 276.6L307.6 276.6ZM359.3 276.6L348.7 276.6L348.7 239.4L359.3 239.4L359.3 246.2L359.8 246.2Q360.4 244.6 361.4 243.2Q362.3 241.8 363.6 240.8Q365.0 239.8 366.7 239.1Q368.5 238.5 370.7 238.5L370.7 238.5Q373.4 238.5 375.6 239.4Q377.8 240.3 379.4 242.1Q381.0 243.9 381.9 246.5Q382.8 249.1 382.8 252.5L382.8 252.5L382.8 276.6L372.2 276.6L372.2 253.9Q372.2 246.7 365.9 246.7L365.9 246.7Q364.7 246.7 363.5 247.1Q362.3 247.4 361.4 248.1Q360.4 248.8 359.9 249.8Q359.3 250.8 359.3 252.1L359.3 252.1L359.3 276.6Z " clip-path="url(#satori_cp-id-1-0-0)" mask="url(#satori_om-id-1-0-0)"/><path fill="black" d="M130.7 520.3L130.7 499.6L132.9 499.6L132.9 508.2L133.0 508.2Q134.4 505.5 137.5 505.5L137.5 505.5Q140.1 505.5 141.6 507.5Q143.1 509.5 143.1 513.0L143.1 513.0Q143.1 516.6 141.6 518.6Q140.1 520.6 137.5 520.6L137.5 520.6Q134.4 520.6 133.0 517.9L133.0 517.9L132.9 517.9L132.9 520.3L130.7 520.3ZM136.6 518.6L136.6 518.6Q138.6 518.6 139.6 517.4Q140.7 516.2 140.7 514.3L140.7 514.3L140.7 511.8Q140.7 509.9 139.6 508.7Q138.6 507.5 136.6 507.5L136.6 507.5Q135.8 507.5 135.2 507.7Q134.5 507.9 134.0 508.2Q133.5 508.6 133.2 509.2Q132.9 509.7 132.9 510.4L132.9 510.4L132.9 515.7Q132.9 516.4 133.2 516.9Q133.5 517.5 134.0 517.8Q134.5 518.2 135.2 518.4Q135.8 518.6 136.6 518.6ZM155.4 511.9L157.9 505.8L160.1 505.8L152.9 523.4Q152.7 524.1 152.4 524.5Q152.1 525.0 151.7 525.3Q151.2 525.6 150.7 525.7Q150.1 525.9 149.3 525.9L149.3 525.9L147.1 525.9L147.1 524.0L150.5 524.0L152.1 520.0L146.3 505.8L148.6 505.8L151.0 511.9L153.2 517.4L153.3 517.4L155.4 511.9Z "/><clipPath id="satori_cp-id-1-0-1-0-2"><rect x="178" y="489" width="185" height="36"/></clipPath><mask id="satori_om-id-1-0-1-0-2"><rect x="178" y="489" width="185" height="36" fill="#fff"/></mask><path fill="black" d="M194.7 520.1L190.2 520.1L188.9 515.4L183.6 515.4L182.4 520.1L178.1 520.1L183.4 500.5L189.4 500.5L194.7 520.1ZM188.3 512.0L186.4 504.6L186.2 504.6L184.3 512.0L188.3 512.0ZM196.8 520.1L196.8 516.9L201.0 516.9L201.0 508.9L196.5 508.9L196.5 505.6L201.0 505.6L201.0 503.5Q201.0 501.7 202.1 500.5Q203.2 499.4 205.5 499.4L205.5 499.4L210.4 499.4L210.4 502.6L205.2 502.6L205.2 505.6L210.4 505.6L210.4 508.9L205.2 508.9L205.2 516.9L209.7 516.9L209.7 520.1L196.8 520.1ZM213.5 520.1L213.5 516.9L217.9 516.9L217.9 502.6L213.5 502.6L213.5 499.4L222.1 499.4L222.1 516.9L226.5 516.9L226.5 520.1L213.5 520.1ZM244.4 520.1L242.0 520.1Q240.7 520.1 240.0 519.4Q239.2 518.8 239.0 517.5L239.0 517.5L238.9 517.5Q238.5 519.0 237.3 519.7Q236.2 520.4 234.5 520.4L234.5 520.4Q232.4 520.4 231.1 519.3Q229.9 518.2 229.9 516.1L229.9 516.1Q229.9 513.8 231.5 512.8Q233.2 511.7 236.4 511.7L236.4 511.7L238.7 511.7L238.7 510.9Q238.7 509.6 238.1 509.0Q237.5 508.3 236.0 508.3L236.0 508.3Q234.7 508.3 233.9 508.8Q233.1 509.3 232.5 510.2L232.5 510.2L230.2 508.1Q231.0 506.9 232.5 506.1Q234.1 505.3 236.5 505.3L236.5 505.3Q239.5 505.3 241.2 506.7Q242.8 508.0 242.8 510.8L242.8 510.8L242.8 517.1L244.4 517.1L244.4 520.1ZM236.1 517.7L236.1 517.7Q237.2 517.7 237.9 517.2Q238.7 516.6 238.7 515.6L238.7 515.6L238.7 513.9L236.5 513.9Q233.9 513.9 233.9 515.6L233.9 515.6L233.9 516.2Q233.9 516.9 234.5 517.3Q235.1 517.7 236.1 517.7ZM247.1 520.1L247.1 516.9L251.5 516.9L251.5 502.6L247.1 502.6L247.1 499.4L255.7 499.4L255.7 516.9L260.1 516.9L260.1 520.1L247.1 520.1Z M295.5 520.1L291.0 520.1L289.7 515.4L284.4 515.4L283.2 520.1L278.9 520.1L284.2 500.5L290.2 500.5L295.5 520.1ZM289.1 512.0L287.2 504.6L287.0 504.6L285.1 512.0L289.1 512.0ZM303.8 520.4L303.8 520.4Q301.4 520.4 299.6 519.7Q297.9 519.0 297.0 517.7L297.0 517.7L299.3 515.6Q300.1 516.5 301.3 517.0Q302.4 517.5 303.9 517.5L303.9 517.5Q305.1 517.5 305.8 517.1Q306.5 516.8 306.5 516.0L306.5 516.0Q306.5 515.4 306.0 515.1Q305.5 514.9 304.7 514.7L304.7 514.7L302.4 514.4Q301.4 514.2 300.6 513.9Q299.7 513.7 299.1 513.1Q298.5 512.6 298.1 511.9Q297.8 511.2 297.8 510.2L297.8 510.2Q297.8 507.9 299.5 506.6Q301.2 505.3 304.4 505.3L304.4 505.3Q306.5 505.3 308.0 505.9Q309.5 506.5 310.4 507.5L310.4 507.5L308.3 509.9Q307.7 509.2 306.7 508.7Q305.7 508.2 304.2 508.2L304.2 508.2Q301.8 508.2 301.8 509.7L301.8 509.7Q301.8 510.3 302.3 510.6Q302.8 510.8 303.6 510.9L303.6 510.9L305.9 511.3Q306.9 511.4 307.7 511.7Q308.6 512.0 309.2 512.5Q309.8 513.0 310.2 513.8Q310.6 514.5 310.6 515.5L310.6 515.5Q310.6 517.8 308.8 519.1Q307.1 520.4 303.8 520.4ZM314.2 520.1L314.2 499.4L318.4 499.4L318.4 511.1L318.6 511.1L320.5 508.9L323.5 505.6L328.3 505.6L322.7 511.4L328.9 520.1L323.9 520.1L319.7 513.7L318.4 515.1L318.4 520.1L314.2 520.1ZM338.0 520.4L338.0 520.4Q334.4 520.4 332.5 518.4Q330.6 516.4 330.6 512.9L330.6 512.9Q330.6 511.2 331.1 509.7Q331.6 508.3 332.5 507.3Q333.4 506.3 334.7 505.8Q336.0 505.3 337.6 505.3L337.6 505.3Q339.3 505.3 340.5 505.8Q341.8 506.3 342.7 507.3Q343.6 508.2 344.1 509.6Q344.6 511.0 344.6 512.6L344.6 512.6L344.6 513.9L334.7 513.9L334.7 514.1Q334.7 515.5 335.6 516.4Q336.5 517.2 338.1 517.2L338.1 517.2Q339.4 517.2 340.3 516.7Q341.3 516.3 341.9 515.4L341.9 515.4L344.2 517.9Q343.3 518.9 341.8 519.7Q340.3 520.4 338.0 520.4ZM337.7 508.3L337.7 508.3Q336.3 508.3 335.5 509.1Q334.7 509.9 334.7 511.3L334.7 511.3L334.7 511.6L340.5 511.6L340.5 511.3Q340.5 509.9 339.8 509.1Q339.0 508.3 337.7 508.3ZM348.1 520.1L348.1 516.9L351.4 516.9L351.4 508.9L348.1 508.9L348.1 505.6L355.5 505.6L355.5 509.7L355.7 509.7Q355.9 508.9 356.3 508.2Q356.6 507.5 357.2 506.9Q357.7 506.3 358.5 506.0Q359.3 505.6 360.4 505.6L360.4 505.6L361.7 505.6L361.7 509.5L358.7 509.5Q357.1 509.5 356.3 510.4Q355.5 511.3 355.5 512.6L355.5 512.6L355.5 516.9L360.3 516.9L360.3 520.1L348.1 520.1Z " clip-path="url(#satori_cp-id-1-0-1-0-2)" mask="url(#satori_om-id-1-0-1-0-2)"/><clipPath id="satori_cp-id-1-0-1-1"><rect x="886" y="489" width="185" height="36"/></clipPath><mask id="satori_om-id-1-0-1-1"><rect x="886" y="489" width="185" height="36" fill="#fff"/></mask><path fill="black" d="M902.0 520.1L899.6 520.1Q898.3 520.1 897.6 519.4Q896.8 518.8 896.6 517.5L896.6 517.5L896.5 517.5Q896.1 519.0 894.9 519.7Q893.8 520.4 892.1 520.4L892.1 520.4Q890.0 520.4 888.7 519.3Q887.5 518.2 887.5 516.1L887.5 516.1Q887.5 513.8 889.1 512.8Q890.8 511.7 894.0 511.7L894.0 511.7L896.3 511.7L896.3 510.9Q896.3 509.6 895.7 509.0Q895.1 508.3 893.6 508.3L893.6 508.3Q892.3 508.3 891.5 508.8Q890.7 509.3 890.1 510.2L890.1 510.2L887.8 508.1Q888.6 506.9 890.1 506.1Q891.7 505.3 894.1 505.3L894.1 505.3Q897.1 505.3 898.8 506.7Q900.4 508.0 900.4 510.8L900.4 510.8L900.4 517.1L902.0 517.1L902.0 520.1ZM893.7 517.7L893.7 517.7Q894.8 517.7 895.5 517.2Q896.3 516.6 896.3 515.6L896.3 515.6L896.3 513.9L894.1 513.9Q891.5 513.9 891.5 515.6L891.5 515.6L891.5 516.2Q891.5 516.9 892.1 517.3Q892.7 517.7 893.7 517.7ZM904.8 520.1L904.8 516.9L909.0 516.9L909.0 508.9L904.5 508.9L904.5 505.6L909.0 505.6L909.0 503.5Q909.0 501.7 910.1 500.5Q911.2 499.4 913.5 499.4L913.5 499.4L918.4 499.4L918.4 502.6L913.2 502.6L913.2 505.6L918.4 505.6L918.4 508.9L913.2 508.9L913.2 516.9L917.7 516.9L917.7 520.1L904.8 520.1ZM921.5 520.1L921.5 516.9L925.9 516.9L925.9 502.6L921.5 502.6L921.5 499.4L930.1 499.4L930.1 516.9L934.5 516.9L934.5 520.1L921.5 520.1ZM952.4 520.1L950.0 520.1Q948.7 520.1 948.0 519.4Q947.2 518.8 947.0 517.5L947.0 517.5L946.9 517.5Q946.5 519.0 945.3 519.7Q944.2 520.4 942.5 520.4L942.5 520.4Q940.4 520.4 939.1 519.3Q937.9 518.2 937.9 516.1L937.9 516.1Q937.9 513.8 939.5 512.8Q941.2 511.7 944.4 511.7L944.4 511.7L946.7 511.7L946.7 510.9Q946.7 509.6 946.1 509.0Q945.5 508.3 944.0 508.3L944.0 508.3Q942.7 508.3 941.9 508.8Q941.1 509.3 940.5 510.2L940.5 510.2L938.2 508.1Q939.0 506.9 940.5 506.1Q942.1 505.3 944.5 505.3L944.5 505.3Q947.5 505.3 949.2 506.7Q950.8 508.0 950.8 510.8L950.8 510.8L950.8 517.1L952.4 517.1L952.4 520.1ZM944.1 517.7L944.1 517.7Q945.2 517.7 945.9 517.2Q946.7 516.6 946.7 515.6L946.7 515.6L946.7 513.9L944.5 513.9Q941.9 513.9 941.9 515.6L941.9 515.6L941.9 516.2Q941.9 516.9 942.5 517.3Q943.1 517.7 944.1 517.7ZM955.1 520.1L955.1 516.9L959.5 516.9L959.5 502.6L955.1 502.6L955.1 499.4L963.7 499.4L963.7 516.9L968.1 516.9L968.1 520.1L955.1 520.1ZM978.4 520.4L978.4 520.4Q976.8 520.4 976.1 519.7Q975.5 519.1 975.5 518.1L975.5 518.1L975.5 517.1Q975.5 516.2 976.1 515.5Q976.8 514.8 978.4 514.8L978.4 514.8Q980.0 514.8 980.7 515.5Q981.3 516.2 981.3 517.1L981.3 517.1L981.3 518.1Q981.3 519.1 980.7 519.7Q980.0 520.4 978.4 520.4ZM995.8 520.4L995.8 520.4Q994.1 520.4 992.7 519.9Q991.4 519.4 990.4 518.4Q989.5 517.4 989.0 516.0Q988.5 514.6 988.5 512.9L988.5 512.9Q988.5 511.1 989.0 509.7Q989.5 508.3 990.4 507.3Q991.4 506.3 992.7 505.8Q994.1 505.3 995.8 505.3L995.8 505.3Q998.1 505.3 999.6 506.3Q1001.0 507.2 1001.8 508.8L1001.8 508.8L998.6 510.6Q998.2 509.7 997.6 509.2Q996.9 508.6 995.8 508.6L995.8 508.6Q994.3 508.6 993.6 509.4Q992.8 510.3 992.8 511.7L992.8 511.7L992.8 514.0Q992.8 515.5 993.6 516.3Q994.3 517.1 995.8 517.1L995.8 517.1Q997.0 517.1 997.7 516.6Q998.4 516.0 998.9 515.1L998.9 515.1L1002.0 516.9Q1001.2 518.5 999.7 519.5Q998.2 520.4 995.8 520.4ZM1012.0 520.4L1012.0 520.4Q1010.3 520.4 1009.0 519.9Q1007.6 519.4 1006.7 518.4Q1005.8 517.4 1005.3 516.0Q1004.7 514.6 1004.7 512.9L1004.7 512.9Q1004.7 511.1 1005.3 509.7Q1005.8 508.3 1006.7 507.3Q1007.6 506.3 1009.0 505.8Q1010.3 505.3 1012.0 505.3L1012.0 505.3Q1013.7 505.3 1015.0 505.8Q1016.4 506.3 1017.3 507.3Q1018.2 508.3 1018.7 509.7Q1019.3 511.1 1019.3 512.9L1019.3 512.9Q1019.3 514.6 1018.7 516.0Q1018.2 517.4 1017.3 518.4Q1016.4 519.4 1015.0 519.9Q1013.7 520.4 1012.0 520.4ZM1012.0 517.3L1012.0 517.3Q1013.4 517.3 1014.2 516.5Q1015.0 515.6 1015.0 514.0L1015.0 514.0L1015.0 511.7Q1015.0 510.1 1014.2 509.3Q1013.4 508.4 1012.0 508.4L1012.0 508.4Q1010.6 508.4 1009.8 509.3Q1009.0 510.1 1009.0 511.7L1009.0 511.7L1009.0 514.0Q1009.0 515.6 1009.8 516.5Q1010.6 517.3 1012.0 517.3ZM1031.4 520.1L1031.4 517.5L1031.2 517.5Q1030.6 518.8 1029.7 519.6Q1028.7 520.4 1026.9 520.4L1026.9 520.4Q1025.7 520.4 1024.7 520.0Q1023.7 519.5 1023.0 518.6Q1022.3 517.7 1021.9 516.3Q1021.5 514.8 1021.5 512.9L1021.5 512.9Q1021.5 510.9 1021.9 509.5Q1022.3 508.1 1023.0 507.1Q1023.7 506.2 1024.7 505.8Q1025.7 505.3 1026.9 505.3L1026.9 505.3Q1027.8 505.3 1028.5 505.5Q1029.1 505.8 1029.7 506.1Q1030.2 506.5 1030.5 507.1Q1030.9 507.6 1031.2 508.3L1031.2 508.3L1031.4 508.3L1031.4 499.4L1035.5 499.4L1035.5 520.1L1031.4 520.1ZM1028.7 517.2L1028.7 517.2Q1029.8 517.2 1030.6 516.7Q1031.4 516.1 1031.4 515.0L1031.4 515.0L1031.4 510.7Q1031.4 509.6 1030.6 509.1Q1029.8 508.5 1028.7 508.5L1028.7 508.5Q1027.3 508.5 1026.6 509.4Q1025.8 510.2 1025.8 511.7L1025.8 511.7L1025.8 514.0Q1025.8 515.5 1026.6 516.4Q1027.3 517.2 1028.7 517.2ZM1046.0 520.4L1046.0 520.4Q1042.4 520.4 1040.5 518.4Q1038.6 516.4 1038.6 512.9L1038.6 512.9Q1038.6 511.2 1039.1 509.7Q1039.6 508.3 1040.5 507.3Q1041.4 506.3 1042.7 505.8Q1044.0 505.3 1045.6 505.3L1045.6 505.3Q1047.3 505.3 1048.5 505.8Q1049.8 506.3 1050.7 507.3Q1051.6 508.2 1052.1 509.6Q1052.6 511.0 1052.6 512.6L1052.6 512.6L1052.6 513.9L1042.7 513.9L1042.7 514.1Q1042.7 515.5 1043.6 516.4Q1044.5 517.2 1046.1 517.2L1046.1 517.2Q1047.4 517.2 1048.3 516.7Q1049.3 516.3 1049.9 515.4L1049.9 515.4L1052.2 517.9Q1051.3 518.9 1049.8 519.7Q1048.3 520.4 1046.0 520.4ZM1045.7 508.3L1045.7 508.3Q1044.3 508.3 1043.5 509.1Q1042.7 509.9 1042.7 511.3L1042.7 511.3L1042.7 511.6L1048.5 511.6L1048.5 511.3Q1048.5 509.9 1047.8 509.1Q1047.0 508.3 1045.7 508.3ZM1062.2 520.4L1062.2 520.4Q1059.8 520.4 1058.0 519.7Q1056.3 519.0 1055.4 517.7L1055.4 517.7L1057.7 515.6Q1058.5 516.5 1059.7 517.0Q1060.8 517.5 1062.3 517.5L1062.3 517.5Q1063.5 517.5 1064.2 517.1Q1064.9 516.8 1064.9 516.0L1064.9 516.0Q1064.9 515.4 1064.4 515.1Q1063.9 514.9 1063.1 514.7L1063.1 514.7L1060.8 514.4Q1059.8 514.2 1059.0 513.9Q1058.1 513.7 1057.5 513.1Q1056.9 512.6 1056.5 511.9Q1056.2 511.2 1056.2 510.2L1056.2 510.2Q1056.2 507.9 1057.9 506.6Q1059.6 505.3 1062.8 505.3L1062.8 505.3Q1064.9 505.3 1066.4 505.9Q1067.9 506.5 1068.8 507.5L1068.8 507.5L1066.7 509.9Q1066.1 509.2 1065.1 508.7Q1064.1 508.2 1062.6 508.2L1062.6 508.2Q1060.2 508.2 1060.2 509.7L1060.2 509.7Q1060.2 510.3 1060.7 510.6Q1061.2 510.8 1062.0 510.9L1062.0 510.9L1064.3 511.3Q1065.3 511.4 1066.1 511.7Q1067.0 512.0 1067.6 512.5Q1068.2 513.0 1068.6 513.8Q1069.0 514.5 1069.0 515.5L1069.0 515.5Q1069.0 517.8 1067.2 519.1Q1065.5 520.4 1062.2 520.4Z " clip-path="url(#satori_cp-id-1-0-1-1)" mask="url(#satori_om-id-1-0-1-1)"/></svg>